<svg width="171" height="118" viewBox="0 0 171 118" fill="none" xmlns="http://www.w3.org/2000/svg">
<path d="M156.973 79.5677H120.987V84.3532H156.973V79.5677Z" fill="#C1CAD6"/>
<path d="M156.973 82.1545H120.987V80.8611L156.973 76.981V82.1545Z" fill="#B3BFCF"/>
<path d="M115.44 81.2491V79.5677H151.427V84.4826H115.44V82.8012" fill="#D6DEE8"/>
<path d="M151.427 80.4731H115.44V82.1545H151.427V80.4731Z" fill="#C9D2DE"/>
<path d="M156.457 80.7318H115.698C114.666 80.7318 113.893 79.9558 113.893 78.9211V70.3848C113.893 69.3501 114.666 68.5741 115.698 68.5741H156.457C157.489 68.5741 158.263 69.3501 158.263 70.3848V78.9211C158.263 79.9558 157.489 80.7318 156.457 80.7318Z" fill="#DAE1ED"/>
<path d="M119.181 68.5741H150.782C151.556 68.5741 152.072 69.2208 152.072 69.8675V79.4384C152.072 80.2145 151.427 80.7318 150.782 80.7318H115.182C114.409 80.7318 113.893 80.0851 113.893 79.4384V69.8675C113.893 69.0914 114.537 68.5741 115.182 68.5741H116.085" fill="#EDF1FA"/>
<path d="M129.234 73.0935C129.436 72.8915 129.436 72.5639 129.234 72.3619C129.033 72.1599 128.706 72.1599 128.505 72.3619C128.303 72.5639 128.303 72.8915 128.505 73.0935C128.706 73.2956 129.033 73.2956 129.234 73.0935Z" fill="#CED7E2"/>
<path d="M129.249 75.4157C129.45 75.2136 129.45 74.886 129.249 74.684C129.047 74.4819 128.721 74.4819 128.519 74.684C128.318 74.886 128.318 75.2136 128.519 75.4157C128.721 75.6177 129.047 75.6177 129.249 75.4157Z" fill="#CED7E2"/>
<path d="M129.264 77.7376C129.465 77.5355 129.465 77.208 129.264 77.006C129.062 76.8039 128.736 76.8039 128.534 77.006C128.333 77.208 128.333 77.5355 128.534 77.7376C128.736 77.9396 129.062 77.9396 129.264 77.7376Z" fill="#CED7E2"/>
<path d="M131.574 74.362C131.776 74.1599 131.776 73.8324 131.574 73.6303C131.373 73.4283 131.046 73.4283 130.845 73.6303C130.643 73.8324 130.643 74.1599 130.845 74.362C131.046 74.564 131.373 74.564 131.574 74.362Z" fill="#DFE8F0"/>
<path d="M131.498 76.5926C131.699 76.3905 131.699 76.063 131.498 75.8609C131.297 75.6589 130.97 75.6589 130.768 75.8609C130.567 76.063 130.567 76.3905 130.768 76.5926C130.97 76.7946 131.297 76.7946 131.498 76.5926Z" fill="#CED7E2"/>
<path d="M133.866 73.0643C134.067 72.8623 134.067 72.5347 133.866 72.3326C133.664 72.1306 133.338 72.1306 133.136 72.3326C132.935 72.5347 132.935 72.8623 133.136 73.0643C133.338 73.2664 133.664 73.2664 133.866 73.0643Z" fill="#CED7E2"/>
<path d="M133.88 75.3863C134.081 75.1842 134.081 74.8567 133.88 74.6546C133.678 74.4526 133.352 74.4526 133.15 74.6546C132.949 74.8567 132.949 75.1842 133.15 75.3863C133.352 75.5883 133.678 75.5883 133.88 75.3863Z" fill="#CED7E2"/>
<path d="M133.498 77.8865C133.783 77.8865 134.014 77.6549 134.014 77.3692C134.014 77.0834 133.783 76.8518 133.498 76.8518C133.213 76.8518 132.982 77.0834 132.982 77.3692C132.982 77.6549 133.213 77.8865 133.498 77.8865Z" fill="url(#paint0_linear_105_5662)"/>
<path d="M136.206 74.3328C136.407 74.1307 136.407 73.8031 136.206 73.6011C136.004 73.399 135.678 73.399 135.476 73.6011C135.275 73.8031 135.275 74.1307 135.476 74.3328C135.678 74.5348 136.004 74.5348 136.206 74.3328Z" fill="#DFE8F0"/>
<path d="M136.129 76.5633C136.331 76.3612 136.331 76.0337 136.129 75.8316C135.928 75.6296 135.601 75.6296 135.399 75.8316C135.198 76.0337 135.198 76.3612 135.399 76.5633C135.601 76.7653 135.928 76.7653 136.129 76.5633Z" fill="#CED7E2"/>
<path d="M138.497 73.0349C138.698 72.8329 138.698 72.5053 138.497 72.3032C138.295 72.1012 137.969 72.1012 137.767 72.3032C137.566 72.5053 137.566 72.8329 137.767 73.0349C137.969 73.237 138.295 73.2369 138.497 73.0349Z" fill="#DFE8F0"/>
<path d="M138.511 75.3568C138.713 75.1548 138.713 74.8272 138.511 74.6252C138.31 74.4232 137.983 74.4232 137.782 74.6252C137.58 74.8272 137.58 75.1548 137.782 75.3569C137.983 75.5589 138.31 75.5589 138.511 75.3568Z" fill="#CED7E2"/>
<path d="M138.526 77.6789C138.728 77.4769 138.728 77.1493 138.526 76.9473C138.325 76.7452 137.998 76.7452 137.796 76.9473C137.595 77.1493 137.595 77.4769 137.796 77.6789C137.998 77.881 138.325 77.881 138.526 77.6789Z" fill="#CED7E2"/>
<path d="M140.746 74.3949C140.947 74.1929 140.947 73.8653 140.746 73.6633C140.544 73.4613 140.218 73.4613 140.016 73.6633C139.815 73.8653 139.815 74.1929 140.016 74.3949C140.218 74.597 140.544 74.597 140.746 74.3949Z" fill="#CED7E2"/>
<path d="M140.669 76.6254C140.871 76.4234 140.871 76.0958 140.669 75.8938C140.468 75.6917 140.141 75.6917 139.94 75.8938C139.738 76.0958 139.738 76.4234 139.94 76.6254C140.141 76.8274 140.468 76.8274 140.669 76.6254Z" fill="#CED7E2"/>
<path d="M143.037 73.097C143.238 72.895 143.238 72.5674 143.037 72.3654C142.835 72.1633 142.509 72.1633 142.307 72.3654C142.106 72.5674 142.106 72.895 142.307 73.097C142.509 73.2991 142.835 73.2991 143.037 73.097Z" fill="#CED7E2"/>
<path d="M143.051 75.419C143.253 75.2169 143.253 74.8894 143.051 74.6873C142.85 74.4853 142.523 74.4853 142.322 74.6873C142.12 74.8894 142.12 75.2169 142.322 75.419C142.523 75.621 142.85 75.621 143.051 75.419Z" fill="#DFE8F0"/>
<path d="M143.066 77.741C143.268 77.539 143.268 77.2114 143.066 77.0094C142.865 76.8073 142.538 76.8073 142.336 77.0094C142.135 77.2114 142.135 77.539 142.336 77.741C142.538 77.943 142.865 77.943 143.066 77.741Z" fill="#CED7E2"/>
<path d="M145.377 74.3655C145.579 74.1635 145.579 73.8359 145.377 73.6339C145.176 73.4318 144.849 73.4318 144.648 73.6339C144.446 73.8359 144.446 74.1635 144.648 74.3655C144.849 74.5676 145.176 74.5676 145.377 74.3655Z" fill="#CED7E2"/>
<path d="M145.3 76.5962C145.502 76.3941 145.502 76.0666 145.3 75.8645C145.099 75.6625 144.772 75.6625 144.571 75.8645C144.369 76.0666 144.369 76.3941 144.571 76.5962C144.772 76.7982 145.099 76.7982 145.3 76.5962Z" fill="#CED7E2"/>
<path d="M147.668 73.0677C147.87 72.8656 147.87 72.5381 147.668 72.336C147.467 72.134 147.14 72.134 146.939 72.336C146.737 72.5381 146.737 72.8656 146.939 73.0677C147.14 73.2697 147.467 73.2697 147.668 73.0677Z" fill="#CED7E2"/>
<path d="M147.683 75.3897C147.884 75.1877 147.884 74.8601 147.683 74.658C147.481 74.456 147.155 74.456 146.953 74.658C146.752 74.8601 146.752 75.1876 146.953 75.3897C147.155 75.5917 147.481 75.5917 147.683 75.3897Z" fill="#DFE8F0"/>
<path d="M147.697 77.7116C147.899 77.5096 147.899 77.182 147.697 76.9799C147.496 76.7779 147.169 76.7779 146.968 76.9799C146.766 77.182 146.766 77.5095 146.968 77.7116C147.169 77.9136 147.496 77.9136 147.697 77.7116Z" fill="#CED7E2"/>
<path d="M123.051 75.1703C123.051 76.4637 122.148 77.4984 120.987 77.6277C120.858 77.6277 120.729 77.6277 120.6 77.6277C119.181 77.6277 118.149 76.4637 118.149 75.1703C118.149 73.7476 119.31 72.7129 120.6 72.7129C120.729 72.7129 120.858 72.7129 120.987 72.7129C122.148 72.9716 123.051 74.0063 123.051 75.1703Z" fill="#B3BFCF"/>
<path d="M156.973 95.0883H120.987V99.8738H156.973V95.0883Z" fill="#C1CAD6"/>
<path d="M156.973 97.675H120.987V96.3817L156.973 95.9937V97.675Z" fill="#B3BFCF"/>
<path d="M115.44 96.7696V95.0883H151.427V100.003H115.44V98.3217" fill="#D6DEE8"/>
<path d="M151.427 95.8643H115.44V97.675H151.427V95.8643Z" fill="#C9D2DE"/>
<path d="M156.457 96.2523H115.698C114.666 96.2523 113.893 95.4763 113.893 94.4416V85.9053C113.893 84.8706 114.666 84.0946 115.698 84.0946H156.457C157.489 84.0946 158.263 84.8706 158.263 85.9053V94.4416C158.263 95.4763 157.489 96.2523 156.457 96.2523Z" fill="#DAE1ED"/>
<path d="M119.181 84.0946H150.782C151.556 84.0946 152.072 84.7413 152.072 85.388V94.959C152.072 95.735 151.427 96.2523 150.782 96.2523H115.182C114.409 96.2523 113.893 95.6056 113.893 94.959V85.388C113.893 84.612 114.537 84.0946 115.182 84.0946H116.085" fill="#EDF1FA"/>
<path d="M129.233 88.6144C129.435 88.4123 129.435 88.0847 129.233 87.8827C129.032 87.6807 128.705 87.6807 128.503 87.8827C128.302 88.0847 128.302 88.4123 128.503 88.6144C128.705 88.8164 129.032 88.8164 129.233 88.6144Z" fill="#CED7E2"/>
<path d="M129.248 90.9364C129.449 90.7344 129.449 90.4068 129.248 90.2048C129.046 90.0028 128.719 90.0028 128.518 90.2048C128.316 90.4068 128.316 90.7344 128.518 90.9364C128.719 91.1385 129.046 91.1385 129.248 90.9364Z" fill="#CED7E2"/>
<path d="M128.855 93.4069C129.14 93.4069 129.37 93.1753 129.37 92.8895C129.37 92.6038 129.14 92.3722 128.855 92.3722C128.57 92.3722 128.339 92.6038 128.339 92.8895C128.339 93.1753 128.57 93.4069 128.855 93.4069Z" fill="url(#paint1_linear_105_5662)"/>
<path d="M131.573 89.8829C131.775 89.6808 131.775 89.3533 131.573 89.1512C131.372 88.9492 131.045 88.9492 130.844 89.1512C130.642 89.3533 130.642 89.6808 130.844 89.8829C131.045 90.0849 131.372 90.0849 131.573 89.8829Z" fill="#CED7E2"/>
<path d="M131.497 92.1134C131.698 91.9114 131.698 91.5838 131.497 91.3818C131.295 91.1798 130.968 91.1798 130.767 91.3818C130.565 91.5838 130.565 91.9114 130.767 92.1134C130.968 92.3155 131.295 92.3155 131.497 92.1134Z" fill="#2D5887"/>
<path d="M133.864 88.5851C134.066 88.383 134.066 88.0554 133.864 87.8534C133.663 87.6514 133.336 87.6514 133.135 87.8534C132.933 88.0554 132.933 88.383 133.135 88.5851C133.336 88.7871 133.663 88.7871 133.864 88.5851Z" fill="#CED7E2"/>
<path d="M133.879 90.907C134.08 90.7049 134.08 90.3773 133.879 90.1753C133.677 89.9732 133.351 89.9733 133.149 90.1753C132.948 90.3773 132.948 90.7049 133.149 90.907C133.351 91.109 133.677 91.109 133.879 90.907Z" fill="#DFE8F0"/>
<path d="M133.894 93.2289C134.095 93.0269 134.095 92.6993 133.894 92.4973C133.692 92.2953 133.365 92.2953 133.164 92.4973C132.962 92.6993 132.962 93.0269 133.164 93.2289C133.365 93.4309 133.692 93.4309 133.894 93.2289Z" fill="#CED7E2"/>
<path d="M136.205 89.8536C136.406 89.6515 136.406 89.324 136.205 89.1219C136.003 88.9199 135.676 88.9199 135.475 89.1219C135.273 89.3239 135.273 89.6515 135.475 89.8536C135.676 90.0556 136.003 90.0556 136.205 89.8536Z" fill="#CED7E2"/>
<path d="M136.128 92.084C136.329 91.882 136.329 91.5544 136.128 91.3524C135.926 91.1503 135.6 91.1503 135.398 91.3524C135.197 91.5544 135.197 91.882 135.398 92.084C135.6 92.2861 135.926 92.2861 136.128 92.084Z" fill="#CED7E2"/>
<path d="M138.496 88.5557C138.697 88.3537 138.697 88.0261 138.496 87.8241C138.294 87.622 137.967 87.622 137.766 87.8241C137.564 88.0261 137.564 88.3537 137.766 88.5557C137.967 88.7577 138.294 88.7577 138.496 88.5557Z" fill="#CED7E2"/>
<path d="M138.51 90.8777C138.712 90.6757 138.712 90.3481 138.51 90.1461C138.309 89.944 137.982 89.944 137.781 90.1461C137.579 90.3481 137.579 90.6757 137.781 90.8777C137.982 91.0798 138.309 91.0798 138.51 90.8777Z" fill="#CED7E2"/>
<path d="M138.525 93.1997C138.726 92.9977 138.726 92.6701 138.525 92.468C138.323 92.266 137.997 92.266 137.795 92.468C137.594 92.6701 137.594 92.9977 137.795 93.1997C137.997 93.4017 138.323 93.4017 138.525 93.1997Z" fill="#CED7E2"/>
<path d="M140.744 89.9156C140.946 89.7136 140.946 89.386 140.744 89.184C140.543 88.9819 140.216 88.9819 140.015 89.184C139.813 89.386 139.813 89.7136 140.015 89.9156C140.216 90.1177 140.543 90.1177 140.744 89.9156Z" fill="#CED7E2"/>
<path d="M140.668 92.1462C140.87 91.9441 140.87 91.6166 140.668 91.4145C140.467 91.2125 140.14 91.2125 139.939 91.4145C139.737 91.6165 139.737 91.9441 139.939 92.1462C140.14 92.3482 140.467 92.3482 140.668 92.1462Z" fill="#CED7E2"/>
<path d="M142.656 88.75C142.941 88.75 143.172 88.5184 143.172 88.2327C143.172 87.947 142.941 87.7153 142.656 87.7153C142.371 87.7153 142.14 87.947 142.14 88.2327C142.14 88.5184 142.371 88.75 142.656 88.75Z" fill="url(#paint2_linear_105_5662)"/>
<path d="M143.05 90.9399C143.252 90.7378 143.252 90.4102 143.05 90.2082C142.849 90.0062 142.522 90.0062 142.321 90.2082C142.119 90.4103 142.119 90.7378 142.321 90.9399C142.522 91.1419 142.849 91.1419 143.05 90.9399Z" fill="#DFE8F0"/>
<path d="M143.065 93.2619C143.266 93.0598 143.266 92.7323 143.065 92.5303C142.863 92.3282 142.537 92.3282 142.335 92.5303C142.134 92.7323 142.134 93.0598 142.335 93.2619C142.537 93.4639 142.863 93.4639 143.065 93.2619Z" fill="#CED7E2"/>
<path d="M145.376 89.8864C145.577 89.6843 145.577 89.3568 145.376 89.1548C145.174 88.9527 144.848 88.9527 144.646 89.1548C144.445 89.3568 144.445 89.6843 144.646 89.8864C144.848 90.0884 145.174 90.0884 145.376 89.8864Z" fill="#CED7E2"/>
<path d="M145.299 92.1169C145.501 91.9149 145.501 91.5873 145.299 91.3853C145.098 91.1832 144.771 91.1832 144.57 91.3853C144.368 91.5873 144.368 91.9149 144.57 92.1169C144.771 92.319 145.098 92.319 145.299 92.1169Z" fill="#CED7E2"/>
<path d="M147.667 88.5885C147.868 88.3865 147.868 88.0589 147.667 87.8568C147.465 87.6548 147.139 87.6548 146.937 87.8568C146.736 88.0589 146.736 88.3864 146.937 88.5885C147.139 88.7905 147.465 88.7905 147.667 88.5885Z" fill="#CED7E2"/>
<path d="M147.681 90.9104C147.883 90.7084 147.883 90.3808 147.681 90.1788C147.48 89.9768 147.153 89.9768 146.952 90.1788C146.75 90.3808 146.75 90.7084 146.952 90.9104C147.153 91.1125 147.48 91.1125 147.681 90.9104Z" fill="#CED7E2"/>
<path d="M147.696 93.2325C147.897 93.0305 147.897 92.7029 147.696 92.5009C147.494 92.2988 147.168 92.2988 146.966 92.5009C146.765 92.7029 146.765 93.0305 146.966 93.2325C147.168 93.4346 147.494 93.4346 147.696 93.2325Z" fill="#CED7E2"/>
<path d="M123.051 90.6908C123.051 91.9842 122.148 93.0189 120.987 93.1482C120.858 93.1482 120.729 93.1482 120.6 93.1482C119.181 93.1482 118.149 91.9842 118.149 90.6908C118.149 89.2681 119.31 88.2334 120.6 88.2334C120.729 88.2334 120.858 88.2334 120.987 88.2334C122.148 88.4921 123.051 89.5268 123.051 90.6908Z" fill="#B3BFCF"/>
<path d="M156.973 110.609H120.987V115.394H156.973V110.609Z" fill="#C1CAD6"/>
<path d="M156.973 113.196H120.987V111.902L156.973 108.022V113.196Z" fill="#B3BFCF"/>
<path d="M115.44 112.29V110.609H151.427V115.524H115.44V113.842" fill="#D6DEE8"/>
<path d="M151.427 110.738H115.44V113.196H151.427V110.738Z" fill="#C9D2DE"/>
<path d="M156.457 111.773H115.698C114.666 111.773 113.893 110.997 113.893 109.962V101.426C113.893 100.391 114.666 99.6151 115.698 99.6151H156.457C157.489 99.6151 158.263 100.391 158.263 101.426V109.962C158.263 110.997 157.489 111.773 156.457 111.773Z" fill="#DAE1ED"/>
<path d="M119.181 99.6151H150.782C151.556 99.6151 152.072 100.262 152.072 100.908V110.479C152.072 111.255 151.427 111.773 150.782 111.773H115.182C114.409 111.773 113.893 111.126 113.893 110.479V100.908C113.893 100.132 114.537 99.6151 115.182 99.6151H116.085" fill="#EDF1FA"/>
<path d="M129.232 104.135C129.433 103.933 129.433 103.606 129.232 103.404C129.03 103.202 128.704 103.202 128.502 103.404C128.301 103.606 128.301 103.933 128.502 104.135C128.704 104.337 129.03 104.337 129.232 104.135Z" fill="#CED7E2"/>
<path d="M129.247 106.457C129.448 106.255 129.448 105.928 129.247 105.725C129.045 105.523 128.718 105.523 128.517 105.725C128.315 105.928 128.315 106.255 128.517 106.457C128.718 106.659 129.045 106.659 129.247 106.457Z" fill="#CED7E2"/>
<path d="M129.261 108.779C129.463 108.577 129.463 108.25 129.261 108.047C129.06 107.845 128.733 107.845 128.532 108.047C128.33 108.25 128.33 108.577 128.532 108.779C128.733 108.981 129.06 108.981 129.261 108.779Z" fill="#DFE8F0"/>
<path d="M131.176 105.565C131.461 105.565 131.692 105.333 131.692 105.047C131.692 104.762 131.461 104.53 131.176 104.53C130.891 104.53 130.66 104.762 130.66 105.047C130.66 105.333 130.891 105.565 131.176 105.565Z" fill="url(#paint3_linear_105_5662)"/>
<path d="M131.495 107.634C131.697 107.432 131.697 107.105 131.495 106.903C131.294 106.701 130.967 106.701 130.766 106.903C130.564 107.105 130.564 107.432 130.766 107.634C130.967 107.836 131.294 107.836 131.495 107.634Z" fill="#CED7E2"/>
<path d="M133.863 104.106C134.065 103.904 134.065 103.576 133.863 103.374C133.662 103.172 133.335 103.172 133.134 103.374C132.932 103.576 132.932 103.904 133.134 104.106C133.335 104.308 133.662 104.308 133.863 104.106Z" fill="#CED7E2"/>
<path d="M133.877 106.428C134.079 106.226 134.079 105.898 133.877 105.696C133.676 105.494 133.349 105.494 133.148 105.696C132.946 105.898 132.946 106.226 133.148 106.428C133.349 106.63 133.676 106.63 133.877 106.428Z" fill="#DFE8F0"/>
<path d="M133.892 108.75C134.094 108.548 134.094 108.22 133.892 108.018C133.691 107.816 133.364 107.816 133.163 108.018C132.961 108.22 132.961 108.548 133.163 108.75C133.364 108.952 133.691 108.952 133.892 108.75Z" fill="#DFE8F0"/>
<path d="M136.203 105.374C136.405 105.172 136.405 104.845 136.203 104.643C136.002 104.441 135.675 104.441 135.474 104.643C135.272 104.845 135.272 105.172 135.474 105.374C135.675 105.576 136.002 105.576 136.203 105.374Z" fill="#DFE8F0"/>
<path d="M136.127 107.605C136.328 107.403 136.328 107.075 136.127 106.873C135.925 106.671 135.598 106.671 135.397 106.873C135.196 107.075 135.196 107.403 135.397 107.605C135.598 107.807 135.925 107.807 136.127 107.605Z" fill="#CED7E2"/>
<path d="M138.494 104.077C138.696 103.874 138.696 103.547 138.494 103.345C138.293 103.143 137.966 103.143 137.765 103.345C137.563 103.547 137.563 103.874 137.765 104.077C137.966 104.279 138.293 104.279 138.494 104.077Z" fill="#DFE8F0"/>
<path d="M138.509 106.398C138.71 106.196 138.71 105.869 138.509 105.667C138.308 105.465 137.981 105.465 137.779 105.667C137.578 105.869 137.578 106.196 137.779 106.398C137.981 106.6 138.308 106.6 138.509 106.398Z" fill="#CED7E2"/>
<path d="M138.524 108.72C138.725 108.518 138.725 108.191 138.524 107.989C138.322 107.787 137.995 107.787 137.794 107.989C137.593 108.191 137.593 108.518 137.794 108.72C137.995 108.922 138.322 108.922 138.524 108.72Z" fill="#CED7E2"/>
<path d="M140.743 105.437C140.945 105.234 140.945 104.907 140.743 104.705C140.542 104.503 140.215 104.503 140.014 104.705C139.812 104.907 139.812 105.234 140.014 105.437C140.215 105.639 140.542 105.639 140.743 105.437Z" fill="#CED7E2"/>
<path d="M140.667 107.667C140.868 107.465 140.868 107.137 140.667 106.935C140.465 106.733 140.139 106.733 139.937 106.935C139.736 107.137 139.736 107.465 139.937 107.667C140.139 107.869 140.465 107.869 140.667 107.667Z" fill="#DFE8F0"/>
<path d="M143.034 104.139C143.236 103.937 143.236 103.609 143.034 103.407C142.833 103.205 142.506 103.205 142.305 103.407C142.103 103.609 142.103 103.937 142.305 104.139C142.506 104.341 142.833 104.341 143.034 104.139Z" fill="#CED7E2"/>
<path d="M143.049 106.461C143.251 106.259 143.251 105.931 143.049 105.729C142.848 105.527 142.521 105.527 142.319 105.729C142.118 105.931 142.118 106.259 142.319 106.461C142.521 106.663 142.848 106.663 143.049 106.461Z" fill="#CED7E2"/>
<path d="M142.656 108.927C142.941 108.927 143.172 108.696 143.172 108.41C143.172 108.124 142.941 107.893 142.656 107.893C142.371 107.893 142.14 108.124 142.14 108.41C142.14 108.696 142.371 108.927 142.656 108.927Z" fill="url(#paint4_linear_105_5662)"/>
<path d="M145.375 105.407C145.576 105.205 145.576 104.877 145.375 104.675C145.173 104.473 144.847 104.473 144.645 104.675C144.444 104.877 144.444 105.205 144.645 105.407C144.847 105.609 145.173 105.609 145.375 105.407Z" fill="#DFE8F0"/>
<path d="M145.298 107.638C145.5 107.436 145.5 107.108 145.298 106.906C145.097 106.704 144.77 106.704 144.568 106.906C144.367 107.108 144.367 107.436 144.568 107.638C144.77 107.84 145.097 107.84 145.298 107.638Z" fill="#CED7E2"/>
<path d="M147.665 104.109C147.867 103.907 147.867 103.58 147.665 103.378C147.464 103.176 147.137 103.176 146.936 103.378C146.734 103.58 146.734 103.907 146.936 104.109C147.137 104.311 147.464 104.311 147.665 104.109Z" fill="#CED7E2"/>
<path d="M147.68 106.431C147.882 106.229 147.882 105.902 147.68 105.7C147.479 105.498 147.152 105.498 146.951 105.7C146.749 105.902 146.749 106.229 146.951 106.431C147.152 106.633 147.479 106.633 147.68 106.431Z" fill="#DFE8F0"/>
<path d="M147.695 108.753C147.896 108.551 147.896 108.224 147.695 108.022C147.493 107.82 147.167 107.82 146.965 108.022C146.764 108.224 146.764 108.551 146.965 108.753C147.167 108.955 147.493 108.955 147.695 108.753Z" fill="#CED7E2"/>
<path d="M123.051 106.211C123.051 107.505 122.148 108.539 120.987 108.669C120.858 108.669 120.729 108.669 120.6 108.669C119.181 108.669 118.149 107.505 118.149 106.211C118.149 104.789 119.31 103.754 120.6 103.754C120.729 103.754 120.858 103.754 120.987 103.754C122.148 104.013 123.051 105.047 123.051 106.211Z" fill="#B3BFCF"/>
<path d="M123.05 75.1703C123.05 76.4637 122.147 77.4984 120.987 77.6277C119.826 77.4984 118.923 76.3343 118.923 75.1703C118.923 73.8769 119.826 72.8422 120.987 72.7129C122.147 72.9716 123.05 74.0063 123.05 75.1703Z" fill="#C9D2DE"/>
<path d="M123.05 90.6908C123.05 91.9842 122.147 93.0189 120.987 93.1482C119.826 93.0189 118.923 91.8549 118.923 90.6908C118.923 89.3974 119.826 88.3627 120.987 88.2334C122.147 88.4921 123.05 89.5268 123.05 90.6908Z" fill="#C9D2DE"/>
<path d="M123.05 106.211C123.05 107.505 122.147 108.539 120.987 108.669C119.826 108.539 118.923 107.505 118.923 106.211C118.923 104.918 119.826 103.883 120.987 103.754C122.147 104.013 123.05 105.047 123.05 106.211Z" fill="#C9D2DE"/>
<path opacity="0.4" d="M158.263 68.5741H113.505V115.394H158.263V68.5741Z" fill="white"/>
<path opacity="0.05" d="M146.138 68.5741H128.726V115.394H146.138V68.5741Z" fill="#1C3754"/>
<path d="M128.338 79.5677H92.3518V84.3532H128.338V79.5677Z" fill="#C1CAD6"/>
<path d="M128.338 82.1545H92.3518V80.8611L128.338 76.981V82.1545Z" fill="#B3BFCF"/>
<path d="M86.9346 81.2491V79.5677H122.921V84.4826H86.9346V82.8012" fill="#D6DEE8"/>
<path d="M122.921 80.4731H86.9346V82.1545H122.921V80.4731Z" fill="#C9D2DE"/>
<path d="M127.951 80.7318H87.1927C86.1609 80.7318 85.387 79.9558 85.387 78.9211V70.3848C85.387 69.3501 86.1609 68.5741 87.1927 68.5741H127.951C128.983 68.5741 129.757 69.3501 129.757 70.3848V78.9211C129.757 79.9558 128.983 80.7318 127.951 80.7318Z" fill="#DAE1ED"/>
<path d="M90.5463 68.5741H122.147C122.921 68.5741 123.437 69.2208 123.437 69.8675V79.4384C123.437 80.2145 122.792 80.7318 122.147 80.7318H86.6768C85.9029 80.7318 85.387 80.0851 85.387 79.4384V69.8675C85.387 69.0914 86.0319 68.5741 86.6768 68.5741H87.5797" fill="#EDF1FA"/>
<path d="M100.723 73.0795C100.925 72.8775 100.925 72.5499 100.723 72.3479C100.522 72.1458 100.195 72.1458 99.9935 72.3479C99.792 72.5499 99.792 72.8775 99.9935 73.0795C100.195 73.2815 100.522 73.2815 100.723 73.0795Z" fill="#CED7E2"/>
<path d="M100.738 75.4014C100.939 75.1994 100.939 74.8718 100.738 74.6698C100.536 74.4677 100.21 74.4677 100.008 74.6698C99.8066 74.8718 99.8066 75.1994 100.008 75.4014C100.21 75.6034 100.536 75.6034 100.738 75.4014Z" fill="#CED7E2"/>
<path d="M100.752 77.7234C100.954 77.5214 100.954 77.1938 100.752 76.9918C100.551 76.7898 100.224 76.7898 100.023 76.9918C99.8213 77.1938 99.8213 77.5214 100.023 77.7234C100.224 77.9255 100.551 77.9255 100.752 77.7234Z" fill="#CED7E2"/>
<path d="M103.063 74.348C103.265 74.146 103.265 73.8185 103.063 73.6164C102.862 73.4144 102.535 73.4144 102.334 73.6164C102.132 73.8185 102.132 74.146 102.334 74.3481C102.535 74.5501 102.862 74.5501 103.063 74.348Z" fill="#DFE8F0"/>
<path d="M102.987 76.5785C103.188 76.3765 103.188 76.0489 102.987 75.8469C102.785 75.6449 102.459 75.6449 102.257 75.8469C102.056 76.0489 102.056 76.3765 102.257 76.5785C102.459 76.7806 102.785 76.7806 102.987 76.5785Z" fill="#CED7E2"/>
<path d="M105.354 73.0502C105.556 72.8482 105.556 72.5206 105.354 72.3186C105.153 72.1165 104.826 72.1165 104.625 72.3186C104.423 72.5206 104.423 72.8482 104.625 73.0502C104.826 73.2522 105.153 73.2522 105.354 73.0502Z" fill="#CED7E2"/>
<path d="M105.369 75.3721C105.571 75.1701 105.571 74.8425 105.369 74.6405C105.168 74.4384 104.841 74.4384 104.639 74.6405C104.438 74.8425 104.438 75.1701 104.639 75.3721C104.841 75.5741 105.168 75.5741 105.369 75.3721Z" fill="#CED7E2"/>
<path d="M104.992 77.8864C105.277 77.8864 105.508 77.6548 105.508 77.369C105.508 77.0833 105.277 76.8517 104.992 76.8517C104.708 76.8517 104.477 77.0833 104.477 77.369C104.477 77.6548 104.708 77.8864 104.992 77.8864Z" fill="url(#paint5_linear_105_5662)"/>
<path d="M107.694 74.3187C107.896 74.1167 107.896 73.7891 107.694 73.5871C107.493 73.3851 107.166 73.3851 106.965 73.5871C106.763 73.7891 106.763 74.1167 106.965 74.3187C107.166 74.5207 107.493 74.5207 107.694 74.3187Z" fill="#DFE8F0"/>
<path d="M107.618 76.5492C107.819 76.3472 107.819 76.0196 107.618 75.8176C107.416 75.6156 107.09 75.6156 106.888 75.8176C106.687 76.0196 106.687 76.3472 106.888 76.5492C107.09 76.7513 107.416 76.7513 107.618 76.5492Z" fill="#CED7E2"/>
<path d="M109.894 73.1122C110.096 72.9102 110.096 72.5827 109.894 72.3807C109.693 72.1786 109.366 72.1786 109.165 72.3807C108.963 72.5827 108.963 72.9102 109.165 73.1123C109.366 73.3143 109.693 73.3143 109.894 73.1122Z" fill="#DFE8F0"/>
<path d="M109.909 75.4344C110.11 75.2323 110.11 74.9048 109.909 74.7027C109.707 74.5007 109.381 74.5007 109.179 74.7027C108.978 74.9048 108.978 75.2323 109.179 75.4344C109.381 75.6364 109.707 75.6364 109.909 75.4344Z" fill="#CED7E2"/>
<path d="M109.923 77.7563C110.125 77.5542 110.125 77.2267 109.923 77.0246C109.722 76.8226 109.395 76.8226 109.194 77.0246C108.992 77.2267 108.992 77.5542 109.194 77.7563C109.395 77.9583 109.722 77.9583 109.923 77.7563Z" fill="#CED7E2"/>
<path d="M112.235 74.3808C112.436 74.1788 112.436 73.8513 112.235 73.6492C112.033 73.4472 111.706 73.4472 111.505 73.6492C111.303 73.8513 111.303 74.1788 111.505 74.3808C111.706 74.5828 112.033 74.5828 112.235 74.3808Z" fill="#CED7E2"/>
<path d="M112.158 76.6113C112.36 76.4093 112.36 76.0817 112.158 75.8797C111.957 75.6777 111.63 75.6777 111.428 75.8797C111.227 76.0817 111.227 76.4093 111.428 76.6113C111.63 76.8133 111.957 76.8133 112.158 76.6113Z" fill="#CED7E2"/>
<path d="M114.525 73.083C114.727 72.881 114.727 72.5534 114.525 72.3514C114.324 72.1494 113.997 72.1494 113.796 72.3514C113.594 72.5534 113.594 72.881 113.796 73.083C113.997 73.2851 114.324 73.2851 114.525 73.083Z" fill="#CED7E2"/>
<path d="M114.54 75.405C114.742 75.203 114.742 74.8754 114.54 74.6734C114.339 74.4714 114.012 74.4714 113.811 74.6734C113.609 74.8754 113.609 75.203 113.811 75.405C114.012 75.607 114.339 75.607 114.54 75.405Z" fill="#DFE8F0"/>
<path d="M114.555 77.727C114.756 77.5249 114.756 77.1974 114.555 76.9953C114.353 76.7933 114.027 76.7933 113.825 76.9953C113.624 77.1974 113.624 77.5249 113.825 77.727C114.027 77.929 114.353 77.929 114.555 77.727Z" fill="#CED7E2"/>
<path d="M116.866 74.3515C117.067 74.1494 117.067 73.8219 116.866 73.6198C116.664 73.4178 116.338 73.4178 116.136 73.6198C115.935 73.8219 115.935 74.1494 116.136 74.3515C116.338 74.5535 116.664 74.5535 116.866 74.3515Z" fill="#CED7E2"/>
<path d="M116.789 76.5819C116.991 76.3799 116.991 76.0523 116.789 75.8503C116.588 75.6483 116.261 75.6483 116.06 75.8503C115.858 76.0523 115.858 76.3799 116.06 76.5819C116.261 76.784 116.588 76.784 116.789 76.5819Z" fill="#CED7E2"/>
<path d="M119.157 73.0535C119.358 72.8515 119.358 72.5239 119.157 72.3219C118.955 72.1198 118.629 72.1198 118.427 72.3219C118.226 72.5239 118.226 72.8515 118.427 73.0535C118.629 73.2555 118.955 73.2555 119.157 73.0535Z" fill="#CED7E2"/>
<path d="M119.172 75.3756C119.373 75.1736 119.373 74.846 119.172 74.644C118.97 74.442 118.643 74.442 118.442 74.644C118.24 74.846 118.24 75.1736 118.442 75.3756C118.643 75.5777 118.97 75.5777 119.172 75.3756Z" fill="#DFE8F0"/>
<path d="M119.186 77.6977C119.388 77.4956 119.388 77.1681 119.186 76.966C118.985 76.764 118.658 76.764 118.457 76.966C118.255 77.1681 118.255 77.4956 118.457 77.6977C118.658 77.8997 118.985 77.8997 119.186 77.6977Z" fill="#CED7E2"/>
<path d="M94.5449 75.1703C94.5449 76.4637 93.642 77.4984 92.4812 77.6277C92.3522 77.6277 92.2232 77.6277 92.0942 77.6277C90.6754 77.6277 89.6436 76.4637 89.6436 75.1703C89.6436 73.7476 90.8044 72.7129 92.0942 72.7129C92.2232 72.7129 92.3522 72.7129 92.4812 72.7129C93.642 72.9716 94.5449 74.0063 94.5449 75.1703Z" fill="#B3BFCF"/>
<path d="M128.338 95.0883H92.3518V99.8738H128.338V95.0883Z" fill="#C1CAD6"/>
<path d="M128.338 97.675H92.3518V96.3817L128.338 95.9937V97.675Z" fill="#B3BFCF"/>
<path d="M86.9346 96.7696V95.0883H122.921V100.003H86.9346V98.3217" fill="#D6DEE8"/>
<path d="M122.921 95.8643H86.9346V97.675H122.921V95.8643Z" fill="#C9D2DE"/>
<path d="M127.951 96.2523H87.1927C86.1609 96.2523 85.387 95.4763 85.387 94.4416V85.9053C85.387 84.8706 86.1609 84.0946 87.1927 84.0946H127.951C128.983 84.0946 129.757 84.8706 129.757 85.9053V94.4416C129.757 95.4763 128.983 96.2523 127.951 96.2523Z" fill="#DAE1ED"/>
<path d="M90.5463 84.0946H122.147C122.921 84.0946 123.437 84.7413 123.437 85.388V94.959C123.437 95.735 122.792 96.2523 122.147 96.2523H86.6768C85.9029 96.2523 85.387 95.6056 85.387 94.959V85.388C85.387 84.612 86.0319 84.0946 86.6768 84.0946H87.5797" fill="#EDF1FA"/>
<path d="M100.722 88.6004C100.923 88.3983 100.923 88.0708 100.722 87.8688C100.52 87.6667 100.194 87.6667 99.9923 87.8687C99.7908 88.0708 99.7908 88.3983 99.9923 88.6004C100.194 88.8024 100.52 88.8024 100.722 88.6004Z" fill="#CED7E2"/>
<path d="M100.737 90.9224C100.938 90.7204 100.938 90.3928 100.737 90.1908C100.535 89.9887 100.208 89.9887 100.007 90.1908C99.8054 90.3928 99.8054 90.7204 100.007 90.9224C100.208 91.1244 100.535 91.1244 100.737 90.9224Z" fill="#CED7E2"/>
<path d="M100.349 93.4069C100.634 93.4069 100.865 93.1753 100.865 92.8895C100.865 92.6038 100.634 92.3722 100.349 92.3722C100.064 92.3722 99.833 92.6038 99.833 92.8895C99.833 93.1753 100.064 93.4069 100.349 93.4069Z" fill="url(#paint6_linear_105_5662)"/>
<path d="M103.062 89.8688C103.264 89.6668 103.264 89.3392 103.062 89.1372C102.861 88.9351 102.534 88.9351 102.333 89.1372C102.131 89.3392 102.131 89.6668 102.333 89.8688C102.534 90.0708 102.861 90.0708 103.062 89.8688Z" fill="#CED7E2"/>
<path d="M102.986 92.0994C103.187 91.8974 103.187 91.5698 102.986 91.3678C102.784 91.1657 102.457 91.1657 102.256 91.3678C102.054 91.5698 102.054 91.8974 102.256 92.0994C102.457 92.3014 102.784 92.3014 102.986 92.0994Z" fill="#2D5887"/>
<path d="M105.353 88.571C105.555 88.3689 105.555 88.0414 105.353 87.8393C105.152 87.6373 104.825 87.6373 104.624 87.8393C104.422 88.0414 104.422 88.3689 104.624 88.571C104.825 88.773 105.152 88.773 105.353 88.571Z" fill="#CED7E2"/>
<path d="M105.368 90.8929C105.569 90.6909 105.569 90.3633 105.368 90.1613C105.166 89.9593 104.84 89.9593 104.638 90.1613C104.437 90.3633 104.437 90.6909 104.638 90.8929C104.84 91.0949 105.166 91.0949 105.368 90.8929Z" fill="#DFE8F0"/>
<path d="M105.383 93.2151C105.584 93.0131 105.584 92.6855 105.383 92.4835C105.181 92.2815 104.854 92.2815 104.653 92.4835C104.451 92.6855 104.451 93.0131 104.653 93.2151C104.854 93.4171 105.181 93.4171 105.383 93.2151Z" fill="#CED7E2"/>
<path d="M107.693 89.8395C107.895 89.6375 107.895 89.3099 107.693 89.1079C107.492 88.9059 107.165 88.9059 106.964 89.1079C106.762 89.3099 106.762 89.6375 106.964 89.8395C107.165 90.0415 107.492 90.0415 107.693 89.8395Z" fill="#CED7E2"/>
<path d="M107.617 92.0701C107.818 91.8681 107.818 91.5405 107.617 91.3385C107.415 91.1364 107.089 91.1364 106.887 91.3385C106.686 91.5405 106.686 91.8681 106.887 92.0701C107.089 92.2721 107.415 92.2721 107.617 92.0701Z" fill="#CED7E2"/>
<path d="M109.893 88.6331C110.095 88.4311 110.095 88.1035 109.893 87.9015C109.692 87.6994 109.365 87.6994 109.164 87.9015C108.962 88.1035 108.962 88.4311 109.164 88.6331C109.365 88.8351 109.692 88.8351 109.893 88.6331Z" fill="#CED7E2"/>
<path d="M109.908 90.9551C110.109 90.7531 110.109 90.4255 109.908 90.2235C109.706 90.0214 109.38 90.0214 109.178 90.2235C108.977 90.4255 108.977 90.7531 109.178 90.9551C109.38 91.1571 109.706 91.1571 109.908 90.9551Z" fill="#CED7E2"/>
<path d="M109.922 93.277C110.124 93.075 110.124 92.7474 109.922 92.5454C109.721 92.3433 109.394 92.3433 109.193 92.5454C108.991 92.7474 108.991 93.075 109.193 93.277C109.394 93.479 109.721 93.479 109.922 93.277Z" fill="#CED7E2"/>
<path d="M112.233 89.9017C112.435 89.6997 112.435 89.3721 112.233 89.1701C112.032 88.9681 111.705 88.9681 111.504 89.1701C111.302 89.3721 111.302 89.6997 111.504 89.9017C111.705 90.1037 112.032 90.1037 112.233 89.9017Z" fill="#CED7E2"/>
<path d="M112.157 92.1322C112.359 91.9301 112.359 91.6026 112.157 91.4006C111.956 91.1986 111.629 91.1986 111.427 91.4006C111.226 91.6026 111.226 91.9301 111.427 92.1321C111.629 92.3342 111.956 92.3342 112.157 92.1322Z" fill="#CED7E2"/>
<path d="M114.15 88.7502C114.435 88.7502 114.666 88.5185 114.666 88.2328C114.666 87.9471 114.435 87.7155 114.15 87.7155C113.865 87.7155 113.634 87.9471 113.634 88.2328C113.634 88.5185 113.865 88.7502 114.15 88.7502Z" fill="url(#paint7_linear_105_5662)"/>
<path d="M114.539 90.9257C114.741 90.7237 114.741 90.3961 114.539 90.1941C114.338 89.992 114.011 89.992 113.81 90.1941C113.608 90.3961 113.608 90.7237 113.81 90.9257C114.011 91.1277 114.338 91.1277 114.539 90.9257Z" fill="#DFE8F0"/>
<path d="M114.554 93.2477C114.755 93.0457 114.755 92.7182 114.554 92.5162C114.352 92.3142 114.026 92.3142 113.824 92.5162C113.623 92.7182 113.623 93.0457 113.824 93.2477C114.026 93.4498 114.352 93.4498 114.554 93.2477Z" fill="#CED7E2"/>
<path d="M116.865 89.8723C117.066 89.6703 117.066 89.3428 116.865 89.1407C116.663 88.9387 116.337 88.9387 116.135 89.1407C115.934 89.3427 115.934 89.6703 116.135 89.8723C116.337 90.0744 116.663 90.0744 116.865 89.8723Z" fill="#CED7E2"/>
<path d="M116.788 92.1028C116.99 91.9008 116.99 91.5732 116.788 91.3712C116.587 91.1692 116.26 91.1692 116.058 91.3712C115.857 91.5732 115.857 91.9008 116.058 92.1028C116.26 92.3048 116.587 92.3048 116.788 92.1028Z" fill="#CED7E2"/>
<path d="M119.156 88.5745C119.357 88.3725 119.357 88.0449 119.156 87.8429C118.954 87.6408 118.628 87.6408 118.426 87.8429C118.225 88.0449 118.225 88.3725 118.426 88.5745C118.628 88.7765 118.954 88.7765 119.156 88.5745Z" fill="#CED7E2"/>
<path d="M119.17 90.8965C119.372 90.6945 119.372 90.3669 119.17 90.1649C118.969 89.9628 118.642 89.9628 118.44 90.1649C118.239 90.3669 118.239 90.6945 118.44 90.8965C118.642 91.0986 118.969 91.0986 119.17 90.8965Z" fill="#CED7E2"/>
<path d="M119.185 93.2184C119.387 93.0164 119.387 92.6888 119.185 92.4868C118.984 92.2848 118.657 92.2848 118.455 92.4868C118.254 92.6888 118.254 93.0164 118.455 93.2184C118.657 93.4204 118.984 93.4204 119.185 93.2184Z" fill="#CED7E2"/>
<path d="M94.5449 90.6908C94.5449 91.9842 93.642 93.0189 92.4812 93.1482C92.3522 93.1482 92.2232 93.1482 92.0942 93.1482C90.6754 93.1482 89.6436 91.9842 89.6436 90.6908C89.6436 89.2681 90.8044 88.2334 92.0942 88.2334C92.2232 88.2334 92.3522 88.2334 92.4812 88.2334C93.642 88.4921 94.5449 89.5268 94.5449 90.6908Z" fill="#B3BFCF"/>
<path d="M128.338 110.609H92.3518V115.394H128.338V110.609Z" fill="#C1CAD6"/>
<path d="M128.338 113.196H92.3518V111.902L128.338 108.022V113.196Z" fill="#B3BFCF"/>
<path d="M86.9346 112.29V110.609H122.921V115.524H86.9346V113.842" fill="#D6DEE8"/>
<path d="M122.921 110.738H86.9346V113.196H122.921V110.738Z" fill="#C9D2DE"/>
<path d="M127.951 111.773H87.1927C86.1609 111.773 85.387 110.997 85.387 109.962V101.426C85.387 100.391 86.1609 99.6151 87.1927 99.6151H127.951C128.983 99.6151 129.757 100.391 129.757 101.426V109.962C129.757 110.997 128.983 111.773 127.951 111.773Z" fill="#DAE1ED"/>
<path d="M90.5463 99.6151H122.147C122.921 99.6151 123.437 100.262 123.437 100.908V110.479C123.437 111.255 122.792 111.773 122.147 111.773H86.6768C85.9029 111.773 85.387 111.126 85.387 110.479V100.908C85.387 100.132 86.0319 99.6151 86.6768 99.6151H87.5797" fill="#EDF1FA"/>
<path d="M100.721 104.121C100.922 103.919 100.922 103.591 100.721 103.389C100.519 103.187 100.193 103.187 99.9913 103.389C99.7898 103.591 99.7898 103.919 99.9913 104.121C100.193 104.323 100.519 104.323 100.721 104.121Z" fill="#CED7E2"/>
<path d="M100.736 106.443C100.937 106.241 100.937 105.914 100.736 105.712C100.534 105.51 100.208 105.51 100.006 105.712C99.8047 105.914 99.8047 106.241 100.006 106.443C100.208 106.645 100.534 106.645 100.736 106.443Z" fill="#CED7E2"/>
<path d="M100.75 108.765C100.952 108.563 100.952 108.236 100.75 108.033C100.549 107.831 100.222 107.831 100.021 108.033C99.8191 108.236 99.8191 108.563 100.021 108.765C100.222 108.967 100.549 108.967 100.75 108.765Z" fill="#DFE8F0"/>
<path d="M102.671 105.565C102.956 105.565 103.187 105.333 103.187 105.047C103.187 104.762 102.956 104.53 102.671 104.53C102.386 104.53 102.155 104.762 102.155 105.047C102.155 105.333 102.386 105.565 102.671 105.565Z" fill="url(#paint8_linear_105_5662)"/>
<path d="M102.985 107.62C103.186 107.418 103.186 107.091 102.985 106.889C102.783 106.687 102.457 106.687 102.255 106.889C102.054 107.091 102.054 107.418 102.255 107.62C102.457 107.822 102.783 107.822 102.985 107.62Z" fill="#CED7E2"/>
<path d="M105.352 104.092C105.554 103.89 105.554 103.562 105.352 103.36C105.151 103.158 104.824 103.158 104.623 103.36C104.421 103.562 104.421 103.89 104.623 104.092C104.824 104.294 105.151 104.294 105.352 104.092Z" fill="#CED7E2"/>
<path d="M105.367 106.414C105.569 106.212 105.569 105.884 105.367 105.682C105.166 105.48 104.839 105.48 104.638 105.682C104.436 105.884 104.436 106.212 104.638 106.414C104.839 106.616 105.166 106.616 105.367 106.414Z" fill="#DFE8F0"/>
<path d="M105.381 108.736C105.583 108.534 105.583 108.206 105.381 108.004C105.18 107.802 104.853 107.802 104.652 108.004C104.45 108.206 104.45 108.534 104.652 108.736C104.853 108.938 105.18 108.938 105.381 108.736Z" fill="#DFE8F0"/>
<path d="M107.692 105.36C107.894 105.158 107.894 104.831 107.692 104.629C107.491 104.427 107.164 104.427 106.963 104.629C106.761 104.831 106.761 105.158 106.963 105.36C107.164 105.562 107.491 105.562 107.692 105.36Z" fill="#DFE8F0"/>
<path d="M107.616 107.591C107.817 107.389 107.817 107.061 107.616 106.859C107.414 106.657 107.088 106.657 106.886 106.859C106.685 107.061 106.685 107.389 106.886 107.591C107.088 107.793 107.414 107.793 107.616 107.591Z" fill="#CED7E2"/>
<path d="M109.892 104.154C110.094 103.952 110.094 103.624 109.892 103.422C109.691 103.22 109.364 103.22 109.163 103.422C108.961 103.624 108.961 103.952 109.163 104.154C109.364 104.356 109.691 104.356 109.892 104.154Z" fill="#DFE8F0"/>
<path d="M109.907 106.476C110.109 106.274 110.109 105.946 109.907 105.744C109.706 105.542 109.379 105.542 109.177 105.744C108.976 105.946 108.976 106.274 109.177 106.476C109.379 106.678 109.706 106.678 109.907 106.476Z" fill="#CED7E2"/>
<path d="M109.921 108.798C110.123 108.596 110.123 108.268 109.921 108.066C109.72 107.864 109.393 107.864 109.192 108.066C108.99 108.268 108.99 108.596 109.192 108.798C109.393 109 109.72 109 109.921 108.798Z" fill="#CED7E2"/>
<path d="M112.233 105.422C112.434 105.22 112.434 104.893 112.233 104.691C112.031 104.489 111.704 104.489 111.503 104.691C111.302 104.893 111.302 105.22 111.503 105.422C111.704 105.624 112.031 105.624 112.233 105.422Z" fill="#CED7E2"/>
<path d="M112.156 107.653C112.357 107.451 112.357 107.123 112.156 106.921C111.954 106.719 111.628 106.719 111.426 106.921C111.225 107.123 111.225 107.451 111.426 107.653C111.628 107.855 111.954 107.855 112.156 107.653Z" fill="#DFE8F0"/>
<path d="M114.523 104.125C114.725 103.923 114.725 103.595 114.523 103.393C114.322 103.191 113.995 103.191 113.794 103.393C113.592 103.595 113.592 103.923 113.794 104.125C113.995 104.327 114.322 104.327 114.523 104.125Z" fill="#CED7E2"/>
<path d="M114.538 106.447C114.74 106.245 114.74 105.917 114.538 105.715C114.337 105.513 114.01 105.513 113.808 105.715C113.607 105.917 113.607 106.245 113.808 106.447C114.01 106.649 114.337 106.649 114.538 106.447Z" fill="#CED7E2"/>
<path d="M114.15 108.927C114.435 108.927 114.666 108.696 114.666 108.41C114.666 108.124 114.435 107.893 114.15 107.893C113.865 107.893 113.634 108.124 113.634 108.41C113.634 108.696 113.865 108.927 114.15 108.927Z" fill="url(#paint9_linear_105_5662)"/>
<path d="M116.864 105.393C117.065 105.191 117.065 104.863 116.864 104.661C116.663 104.459 116.336 104.459 116.134 104.661C115.933 104.863 115.933 105.191 116.134 105.393C116.336 105.595 116.663 105.595 116.864 105.393Z" fill="#DFE8F0"/>
<path d="M116.787 107.624C116.989 107.422 116.989 107.094 116.787 106.892C116.586 106.69 116.259 106.69 116.057 106.892C115.856 107.094 115.856 107.422 116.057 107.624C116.259 107.826 116.586 107.826 116.787 107.624Z" fill="#CED7E2"/>
<path d="M119.155 104.095C119.356 103.893 119.356 103.566 119.155 103.364C118.953 103.162 118.627 103.162 118.425 103.364C118.224 103.566 118.224 103.893 118.425 104.095C118.627 104.297 118.953 104.297 119.155 104.095Z" fill="#CED7E2"/>
<path d="M119.169 106.417C119.371 106.215 119.371 105.888 119.169 105.686C118.968 105.484 118.641 105.484 118.44 105.686C118.238 105.888 118.238 106.215 118.44 106.417C118.641 106.619 118.968 106.619 119.169 106.417Z" fill="#DFE8F0"/>
<path d="M119.184 108.739C119.386 108.537 119.386 108.21 119.184 108.008C118.983 107.806 118.656 107.806 118.455 108.008C118.253 108.21 118.253 108.537 118.455 108.739C118.656 108.941 118.983 108.941 119.184 108.739Z" fill="#CED7E2"/>
<path d="M94.5449 106.211C94.5449 107.505 93.642 108.539 92.4812 108.669C92.3522 108.669 92.2232 108.669 92.0942 108.669C90.6754 108.669 89.6436 107.505 89.6436 106.211C89.6436 104.789 90.8044 103.754 92.0942 103.754C92.2232 103.754 92.3522 103.754 92.4812 103.754C93.642 104.013 94.5449 105.047 94.5449 106.211Z" fill="#B3BFCF"/>
<path d="M94.5447 75.1703C94.5447 76.4637 93.6418 77.4984 92.481 77.6277C91.3201 77.4984 90.4172 76.3343 90.4172 75.1703C90.4172 73.8769 91.3201 72.8422 92.481 72.7129C93.6418 72.9716 94.5447 74.0063 94.5447 75.1703Z" fill="#C9D2DE"/>
<path d="M94.5447 90.6908C94.5447 91.9842 93.6418 93.0189 92.481 93.1482C91.3201 93.0189 90.4172 91.8549 90.4172 90.6908C90.4172 89.3974 91.3201 88.3627 92.481 88.2334C93.6418 88.4921 94.5447 89.5268 94.5447 90.6908Z" fill="#C9D2DE"/>
<path d="M94.5447 106.211C94.5447 107.505 93.6418 108.539 92.481 108.669C91.3201 108.539 90.4172 107.505 90.4172 106.211C90.4172 104.918 91.3201 103.883 92.481 103.754C93.6418 104.013 94.5447 105.047 94.5447 106.211Z" fill="#C9D2DE"/>
<path opacity="0.4" d="M129.757 68.5741H85V115.394H129.757V68.5741Z" fill="white"/>
<path opacity="0.05" d="M117.504 68.5741H100.091V115.394H117.504V68.5741Z" fill="#1C3754"/>
<path d="M142.269 61.8486H104.606V66.8928H142.269V61.8486Z" fill="#C1CAD6"/>
<path d="M142.14 64.4354H104.606V63.142L142.14 59.0032V64.4354Z" fill="#B3BFCF"/>
<path d="M98.9302 63.53V61.8486H136.464V66.8928H98.9302V65.2114" fill="#D6DEE8"/>
<path d="M136.593 62.754H98.9302V64.4354H136.593V62.754Z" fill="#C9D2DE"/>
<path d="M141.624 63.0127H99.0593C98.0274 63.0127 97.1245 62.1073 97.1245 61.0726V52.1483C97.1245 51.1136 98.0274 50.2083 99.0593 50.2083H141.624C142.656 50.2083 143.559 51.1136 143.559 52.1483V61.0726C143.559 62.2366 142.785 63.0127 141.624 63.0127Z" fill="#DAE1ED"/>
<path d="M102.671 50.3372H135.691C136.464 50.3372 137.109 50.9838 137.109 51.7599V61.7189C137.109 62.4949 136.464 63.1416 135.691 63.1416H98.5433C97.7694 63.1416 97.1245 62.4949 97.1245 61.7189V51.7599C97.1245 50.9838 97.7694 50.3372 98.5433 50.3372H99.4462" fill="#EDF1FA"/>
<path d="M113.227 54.9869C113.429 54.7848 113.429 54.4572 113.227 54.2552C113.026 54.0532 112.699 54.0532 112.498 54.2552C112.296 54.4572 112.296 54.7848 112.498 54.9869C112.699 55.1889 113.026 55.1889 113.227 54.9869Z" fill="#CED7E2"/>
<path d="M113.26 57.4308C113.461 57.2287 113.461 56.9011 113.26 56.6991C113.058 56.497 112.732 56.497 112.53 56.6991C112.329 56.9011 112.329 57.2287 112.53 57.4308C112.732 57.6328 113.058 57.6328 113.26 57.4308Z" fill="#CED7E2"/>
<path d="M113.201 59.7832C113.403 59.5812 113.403 59.2536 113.201 59.0516C113 58.8496 112.673 58.8496 112.472 59.0516C112.27 59.2536 112.27 59.5812 112.472 59.7832C112.673 59.9853 113 59.9853 113.201 59.7832Z" fill="#CED7E2"/>
<path d="M115.649 56.2542C115.851 56.0521 115.851 55.7246 115.649 55.5225C115.448 55.3205 115.121 55.3205 114.92 55.5225C114.718 55.7246 114.718 56.0522 114.92 56.2542C115.121 56.4562 115.448 56.4562 115.649 56.2542Z" fill="#DFE8F0"/>
<path d="M115.682 58.698C115.883 58.496 115.883 58.1684 115.682 57.9664C115.48 57.7644 115.154 57.7644 114.952 57.9664C114.751 58.1684 114.751 58.496 114.952 58.698C115.154 58.9001 115.48 58.9001 115.682 58.698Z" fill="#CED7E2"/>
<path d="M118.011 55.0132C118.212 54.8111 118.212 54.4835 118.011 54.2815C117.809 54.0794 117.483 54.0794 117.281 54.2815C117.08 54.4835 117.08 54.8111 117.281 55.0132C117.483 55.2152 117.809 55.2152 118.011 55.0132Z" fill="#CED7E2"/>
<path d="M118.043 57.4572C118.245 57.2551 118.245 56.9275 118.043 56.7255C117.842 56.5234 117.515 56.5234 117.314 56.7255C117.112 56.9275 117.112 57.2551 117.314 57.4572C117.515 57.6592 117.842 57.6592 118.043 57.4572Z" fill="#CED7E2"/>
<path d="M117.633 59.9085C117.918 59.9085 118.149 59.6769 118.149 59.3911C118.149 59.1054 117.918 58.8738 117.633 58.8738C117.348 58.8738 117.117 59.1054 117.117 59.3911C117.117 59.6769 117.348 59.9085 117.633 59.9085Z" fill="url(#paint10_linear_105_5662)"/>
<path d="M120.432 56.2806C120.634 56.0785 120.634 55.7509 120.432 55.5489C120.231 55.3469 119.904 55.3469 119.703 55.5489C119.501 55.7509 119.501 56.0785 119.703 56.2806C119.904 56.4826 120.231 56.4826 120.432 56.2806Z" fill="#DFE8F0"/>
<path d="M120.465 58.7245C120.666 58.5224 120.666 58.1948 120.465 57.9928C120.263 57.7907 119.937 57.7907 119.735 57.9928C119.534 58.1948 119.534 58.5224 119.735 58.7245C119.937 58.9265 120.263 58.9265 120.465 58.7245Z" fill="#CED7E2"/>
<path d="M122.885 54.9484C123.087 54.7463 123.087 54.4187 122.885 54.2167C122.684 54.0146 122.357 54.0146 122.156 54.2167C121.954 54.4187 121.954 54.7463 122.156 54.9484C122.357 55.1504 122.684 55.1504 122.885 54.9484Z" fill="#DFE8F0"/>
<path d="M122.918 57.3922C123.119 57.1902 123.119 56.8626 122.918 56.6605C122.716 56.4585 122.389 56.4585 122.188 56.6605C121.987 56.8626 121.987 57.1902 122.188 57.3922C122.389 57.5943 122.716 57.5943 122.918 57.3922Z" fill="#CED7E2"/>
<path d="M122.859 59.7447C123.061 59.5426 123.061 59.2151 122.859 59.013C122.658 58.811 122.331 58.811 122.129 59.013C121.928 59.2151 121.928 59.5426 122.129 59.7447C122.331 59.9467 122.658 59.9467 122.859 59.7447Z" fill="#CED7E2"/>
<path d="M125.216 56.307C125.417 56.105 125.417 55.7774 125.216 55.5754C125.014 55.3734 124.688 55.3734 124.486 55.5754C124.285 55.7774 124.285 56.105 124.486 56.307C124.688 56.5091 125.014 56.5091 125.216 56.307Z" fill="#CED7E2"/>
<path d="M125.248 58.751C125.45 58.549 125.45 58.2214 125.248 58.0194C125.047 57.8173 124.72 57.8173 124.519 58.0194C124.317 58.2214 124.317 58.549 124.519 58.751C124.72 58.953 125.047 58.953 125.248 58.751Z" fill="#CED7E2"/>
<path d="M127.668 54.9748C127.87 54.7727 127.87 54.4452 127.668 54.2431C127.467 54.0411 127.14 54.0411 126.939 54.2431C126.737 54.4452 126.737 54.7727 126.939 54.9748C127.14 55.1768 127.467 55.1768 127.668 54.9748Z" fill="#CED7E2"/>
<path d="M127.701 57.4186C127.902 57.2165 127.902 56.8889 127.701 56.6869C127.5 56.4848 127.173 56.4848 126.971 56.6869C126.77 56.8889 126.77 57.2165 126.971 57.4186C127.173 57.6206 127.5 57.6206 127.701 57.4186Z" fill="#DFE8F0"/>
<path d="M127.642 59.771C127.844 59.569 127.844 59.2414 127.642 59.0394C127.441 58.8374 127.114 58.8374 126.913 59.0394C126.711 59.2414 126.711 59.569 126.913 59.771C127.114 59.9731 127.441 59.9731 127.642 59.771Z" fill="#CED7E2"/>
<path d="M130.09 56.242C130.292 56.0399 130.292 55.7124 130.09 55.5103C129.889 55.3083 129.562 55.3083 129.36 55.5103C129.159 55.7124 129.159 56.0399 129.36 56.242C129.562 56.444 129.889 56.444 130.09 56.242Z" fill="#CED7E2"/>
<path d="M130.123 58.6859C130.324 58.4839 130.324 58.1563 130.123 57.9543C129.921 57.7523 129.595 57.7523 129.393 57.9543C129.192 58.1563 129.192 58.4839 129.393 58.6859C129.595 58.888 129.921 58.888 130.123 58.6859Z" fill="#CED7E2"/>
<path d="M132.452 55.0012C132.653 54.7992 132.653 54.4716 132.452 54.2695C132.25 54.0675 131.923 54.0675 131.722 54.2695C131.52 54.4716 131.52 54.7992 131.722 55.0012C131.923 55.2033 132.25 55.2033 132.452 55.0012Z" fill="#CED7E2"/>
<path d="M132.484 57.4451C132.686 57.2431 132.686 56.9155 132.484 56.7135C132.283 56.5114 131.956 56.5114 131.754 56.7135C131.553 56.9155 131.553 57.2431 131.754 57.4451C131.956 57.6471 132.283 57.6471 132.484 57.4451Z" fill="#DFE8F0"/>
<path d="M132.425 59.7975C132.627 59.5955 132.627 59.2679 132.425 59.0659C132.224 58.8638 131.897 58.8638 131.696 59.0659C131.494 59.2679 131.494 59.5955 131.696 59.7975C131.897 59.9996 132.224 59.9996 132.425 59.7975Z" fill="#CED7E2"/>
<path d="M106.798 57.1925C106.798 58.4858 105.895 59.5205 104.606 59.7792C104.477 59.7792 104.348 59.7792 104.219 59.7792C102.8 59.7792 101.639 58.6152 101.639 57.1925C101.639 55.7698 102.8 54.6057 104.219 54.6057C104.348 54.6057 104.477 54.6057 104.606 54.6057C105.766 54.8644 106.798 55.8991 106.798 57.1925Z" fill="#B3BFCF"/>
<path d="M106.798 57.1925C106.798 58.4858 105.895 59.5205 104.605 59.7792C103.315 59.5205 102.413 58.4858 102.413 57.1925C102.413 55.8991 103.315 54.8644 104.605 54.6057C105.766 54.8644 106.798 55.8991 106.798 57.1925Z" fill="#C9D2DE"/>
<path d="M142.269 77.8865H104.606V82.9306H142.269V77.8865Z" fill="#C1CAD6"/>
<path d="M142.14 80.6025H104.606V79.1798L142.14 75.1703V80.6025Z" fill="#B3BFCF"/>
<path d="M98.9302 79.5679V77.8865H136.464V82.9306H98.9302V81.2492" fill="#D6DEE8"/>
<path d="M136.593 78.7917H98.9302V80.4731H136.593V78.7917Z" fill="#C9D2DE"/>
<path d="M141.624 79.1798H99.0593C98.0274 79.1798 97.1245 78.2744 97.1245 77.2397V68.3154C97.1245 67.2807 98.0274 66.3754 99.0593 66.3754H141.624C142.656 66.3754 143.559 67.2807 143.559 68.3154V77.2397C143.559 78.2744 142.785 79.1798 141.624 79.1798Z" fill="#DAE1ED"/>
<path d="M102.671 66.3754H135.691C136.464 66.3754 137.109 67.0221 137.109 67.7981V77.7571C137.109 78.5331 136.464 79.1798 135.691 79.1798H98.5433C97.7694 79.1798 97.1245 78.5331 97.1245 77.7571V67.7981C97.1245 67.0221 97.7694 66.3754 98.5433 66.3754H99.4462" fill="#EDF1FA"/>
<path d="M113.202 71.0353C113.403 70.8332 113.403 70.5056 113.202 70.3036C113 70.1015 112.674 70.1015 112.472 70.3036C112.271 70.5056 112.271 70.8332 112.472 71.0353C112.674 71.2373 113 71.2373 113.202 71.0353Z" fill="#CED7E2"/>
<path d="M113.234 73.4792C113.436 73.2771 113.436 72.9496 113.234 72.7475C113.033 72.5455 112.706 72.5455 112.505 72.7475C112.303 72.9496 112.303 73.2771 112.505 73.4792C112.706 73.6812 113.033 73.6812 113.234 73.4792Z" fill="#CED7E2"/>
<path d="M113.267 75.9231C113.468 75.7211 113.468 75.3935 113.267 75.1915C113.065 74.9894 112.739 74.9895 112.537 75.1915C112.336 75.3935 112.336 75.7211 112.537 75.9231C112.739 76.1252 113.065 76.1252 113.267 75.9231Z" fill="#CED7E2"/>
<path d="M115.624 72.3024C115.825 72.1004 115.825 71.7728 115.624 71.5708C115.422 71.3687 115.096 71.3687 114.894 71.5708C114.693 71.7728 114.693 72.1004 114.894 72.3024C115.096 72.5044 115.422 72.5044 115.624 72.3024Z" fill="#DFE8F0"/>
<path d="M115.656 74.7464C115.858 74.5443 115.858 74.2168 115.656 74.0147C115.455 73.8127 115.128 73.8127 114.927 74.0147C114.725 74.2168 114.725 74.5443 114.927 74.7464C115.128 74.9484 115.455 74.9484 115.656 74.7464Z" fill="#CED7E2"/>
<path d="M117.985 71.0617C118.187 70.8597 118.187 70.5321 117.985 70.33C117.784 70.128 117.457 70.128 117.255 70.33C117.054 70.5321 117.054 70.8596 117.255 71.0617C117.457 71.2637 117.784 71.2637 117.985 71.0617Z" fill="#CED7E2"/>
<path d="M118.018 73.5056C118.219 73.3036 118.219 72.976 118.018 72.7739C117.816 72.5719 117.49 72.5719 117.288 72.7739C117.087 72.976 117.087 73.3036 117.288 73.5056C117.49 73.7077 117.816 73.7077 118.018 73.5056Z" fill="#CED7E2"/>
<path d="M117.633 76.0757C117.918 76.0757 118.149 75.8441 118.149 75.5584C118.149 75.2726 117.918 75.041 117.633 75.041C117.348 75.041 117.117 75.2726 117.117 75.5584C117.117 75.8441 117.348 76.0757 117.633 76.0757Z" fill="url(#paint11_linear_105_5662)"/>
<path d="M120.407 72.3291C120.608 72.1271 120.608 71.7995 120.407 71.5975C120.205 71.3955 119.879 71.3955 119.677 71.5975C119.476 71.7995 119.476 72.1271 119.677 72.3291C119.879 72.5312 120.205 72.5312 120.407 72.3291Z" fill="#DFE8F0"/>
<path d="M120.439 74.7729C120.641 74.5708 120.641 74.2433 120.439 74.0412C120.238 73.8392 119.911 73.8392 119.71 74.0412C119.508 74.2433 119.508 74.5708 119.71 74.7729C119.911 74.9749 120.238 74.9749 120.439 74.7729Z" fill="#CED7E2"/>
<path d="M122.86 70.9966C123.061 70.7946 123.061 70.467 122.86 70.265C122.658 70.0629 122.331 70.0629 122.13 70.265C121.928 70.467 121.928 70.7946 122.13 70.9966C122.331 71.1987 122.658 71.1987 122.86 70.9966Z" fill="#DFE8F0"/>
<path d="M122.892 73.4406C123.093 73.2385 123.093 72.9109 122.892 72.7089C122.69 72.5068 122.364 72.5068 122.162 72.7089C121.961 72.9109 121.961 73.2385 122.162 73.4406C122.364 73.6426 122.69 73.6426 122.892 73.4406Z" fill="#CED7E2"/>
<path d="M122.924 75.8845C123.126 75.6825 123.126 75.3549 122.924 75.1528C122.723 74.9508 122.396 74.9508 122.195 75.1528C121.993 75.3549 121.993 75.6825 122.195 75.8845C122.396 76.0866 122.723 76.0866 122.924 75.8845Z" fill="#CED7E2"/>
<path d="M125.19 72.3555C125.392 72.1535 125.392 71.8259 125.19 71.6239C124.989 71.4218 124.662 71.4218 124.461 71.6239C124.259 71.8259 124.259 72.1535 124.461 72.3555C124.662 72.5575 124.989 72.5575 125.19 72.3555Z" fill="#CED7E2"/>
<path d="M125.223 74.7993C125.424 74.5973 125.424 74.2697 125.223 74.0676C125.021 73.8656 124.695 73.8656 124.493 74.0676C124.292 74.2697 124.292 74.5973 124.493 74.7993C124.695 75.0014 125.021 75.0014 125.223 74.7993Z" fill="#CED7E2"/>
<path d="M127.643 71.0231C127.845 70.8211 127.845 70.4935 127.643 70.2915C127.442 70.0894 127.115 70.0894 126.913 70.2915C126.712 70.4935 126.712 70.8211 126.913 71.0231C127.115 71.2251 127.442 71.2252 127.643 71.0231Z" fill="#CED7E2"/>
<path d="M127.675 73.467C127.877 73.2649 127.877 72.9374 127.675 72.7353C127.474 72.5333 127.147 72.5333 126.946 72.7353C126.744 72.9374 126.744 73.2649 126.946 73.467C127.147 73.669 127.474 73.669 127.675 73.467Z" fill="#DFE8F0"/>
<path d="M127.708 75.911C127.909 75.709 127.909 75.3814 127.708 75.1793C127.506 74.9773 127.18 74.9773 126.978 75.1793C126.777 75.3814 126.777 75.709 126.978 75.911C127.18 76.1131 127.506 76.1131 127.708 75.911Z" fill="#CED7E2"/>
<path d="M130.064 72.2904C130.266 72.0884 130.266 71.7608 130.064 71.5588C129.863 71.3568 129.536 71.3568 129.335 71.5588C129.133 71.7608 129.133 72.0884 129.335 72.2904C129.536 72.4925 129.863 72.4925 130.064 72.2904Z" fill="#CED7E2"/>
<path d="M130.097 74.7344C130.299 74.5323 130.299 74.2047 130.097 74.0027C129.896 73.8006 129.569 73.8006 129.367 74.0027C129.166 74.2047 129.166 74.5323 129.367 74.7344C129.569 74.9364 129.896 74.9364 130.097 74.7344Z" fill="#CED7E2"/>
<path d="M132.426 71.0496C132.627 70.8476 132.627 70.52 132.426 70.318C132.225 70.1159 131.898 70.1159 131.696 70.318C131.495 70.52 131.495 70.8476 131.696 71.0496C131.898 71.2516 132.225 71.2516 132.426 71.0496Z" fill="#CED7E2"/>
<path d="M132.459 73.4934C132.66 73.2914 132.66 72.9638 132.459 72.7618C132.257 72.5598 131.931 72.5598 131.729 72.7618C131.528 72.9638 131.528 73.2914 131.729 73.4934C131.931 73.6955 132.257 73.6955 132.459 73.4934Z" fill="#DFE8F0"/>
<path d="M132.491 75.9374C132.692 75.7354 132.692 75.4078 132.491 75.2058C132.289 75.0037 131.963 75.0037 131.761 75.2058C131.56 75.4078 131.56 75.7354 131.761 75.9374C131.963 76.1395 132.289 76.1395 132.491 75.9374Z" fill="#CED7E2"/>
<path d="M106.798 73.3597C106.798 74.6531 105.895 75.6878 104.606 75.9465C104.477 75.9465 104.348 75.9465 104.219 75.9465C102.8 75.9465 101.639 74.7824 101.639 73.3597C101.639 71.937 102.8 70.7729 104.219 70.7729C104.348 70.7729 104.477 70.7729 104.606 70.7729C105.766 70.9023 106.798 72.0663 106.798 73.3597Z" fill="#B3BFCF"/>
<path d="M142.269 94.183H104.606V99.2272H142.269V94.183Z" fill="#C1CAD6"/>
<path d="M142.14 96.7698H104.606V95.4764L142.14 95.0884V96.7698Z" fill="#B3BFCF"/>
<path d="M98.9302 95.8644V94.183H136.464V99.2272H98.9302V97.4164" fill="#D6DEE8"/>
<path d="M136.593 94.8297H98.9302V96.7698H136.593V94.8297Z" fill="#C9D2DE"/>
<path d="M141.624 95.347H99.0593C98.0274 95.347 97.1245 94.4417 97.1245 93.407V84.4827C97.1245 83.448 98.0274 82.5426 99.0593 82.5426H141.624C142.656 82.5426 143.559 83.448 143.559 84.4827V93.407C143.559 94.4417 142.785 95.347 141.624 95.347Z" fill="#DAE1ED"/>
<path d="M102.671 82.6719H135.691C136.464 82.6719 137.109 83.3186 137.109 84.0946V94.0536C137.109 94.8296 136.464 95.4763 135.691 95.4763H98.5433C97.7694 95.4763 97.1245 94.8296 97.1245 94.0536V84.0946C97.1245 83.3186 97.7694 82.6719 98.5433 82.6719H99.4462" fill="#EDF1FA"/>
<path d="M113.254 87.3099C113.456 87.1079 113.456 86.7803 113.254 86.5783C113.053 86.3762 112.726 86.3762 112.525 86.5783C112.323 86.7803 112.323 87.1079 112.525 87.3099C112.726 87.512 113.053 87.512 113.254 87.3099Z" fill="#CED7E2"/>
<path d="M113.196 89.6623C113.397 89.4602 113.397 89.1327 113.196 88.9306C112.994 88.7286 112.667 88.7286 112.466 88.9306C112.264 89.1327 112.264 89.4602 112.466 89.6623C112.667 89.8643 112.994 89.8643 113.196 89.6623Z" fill="#CED7E2"/>
<path d="M112.86 92.2428C113.145 92.2428 113.376 92.0112 113.376 91.7255C113.376 91.4398 113.145 91.2081 112.86 91.2081C112.575 91.2081 112.344 91.4398 112.344 91.7255C112.344 92.0112 112.575 92.2428 112.86 92.2428Z" fill="url(#paint12_linear_105_5662)"/>
<path d="M115.676 88.5772C115.877 88.3751 115.877 88.0476 115.676 87.8456C115.474 87.6435 115.148 87.6435 114.946 87.8456C114.745 88.0476 114.745 88.3751 114.946 88.5772C115.148 88.7792 115.474 88.7792 115.676 88.5772Z" fill="#CED7E2"/>
<path d="M115.708 91.0212C115.91 90.8192 115.91 90.4916 115.708 90.2896C115.507 90.0875 115.18 90.0875 114.979 90.2896C114.777 90.4916 114.777 90.8192 114.979 91.0212C115.18 91.2233 115.507 91.2233 115.708 91.0212Z" fill="#2D5887"/>
<path d="M118.037 87.3364C118.239 87.1344 118.239 86.8068 118.037 86.6047C117.836 86.4027 117.509 86.4027 117.308 86.6047C117.106 86.8068 117.106 87.1344 117.308 87.3364C117.509 87.5385 117.836 87.5385 118.037 87.3364Z" fill="#CED7E2"/>
<path d="M117.979 89.6887C118.18 89.4867 118.18 89.1591 117.979 88.957C117.777 88.755 117.451 88.755 117.249 88.957C117.048 89.1591 117.048 89.4867 117.249 89.6887C117.451 89.8908 117.777 89.8908 117.979 89.6887Z" fill="#DFE8F0"/>
<path d="M118.011 92.1327C118.212 91.9307 118.212 91.6031 118.011 91.4011C117.809 91.1991 117.483 91.1991 117.281 91.4011C117.08 91.6031 117.08 91.9307 117.281 92.1327C117.483 92.3348 117.809 92.3348 118.011 92.1327Z" fill="#CED7E2"/>
<path d="M120.459 88.6035C120.661 88.4015 120.661 88.074 120.459 87.8719C120.258 87.6699 119.931 87.6699 119.73 87.8719C119.528 88.074 119.528 88.4015 119.73 88.6035C119.931 88.8056 120.258 88.8056 120.459 88.6035Z" fill="#CED7E2"/>
<path d="M120.492 91.0475C120.693 90.8455 120.693 90.5179 120.492 90.3159C120.29 90.1138 119.964 90.1138 119.762 90.3159C119.561 90.5179 119.561 90.8455 119.762 91.0475C119.964 91.2496 120.29 91.2496 120.492 91.0475Z" fill="#CED7E2"/>
<path d="M122.912 87.2713C123.114 87.0692 123.114 86.7417 122.912 86.5396C122.711 86.3376 122.384 86.3376 122.182 86.5396C121.981 86.7417 121.981 87.0692 122.182 87.2713C122.384 87.4733 122.711 87.4733 122.912 87.2713Z" fill="#CED7E2"/>
<path d="M122.853 89.6239C123.055 89.4218 123.055 89.0943 122.853 88.8922C122.652 88.6901 122.325 88.6901 122.124 88.8922C121.922 89.0943 121.922 89.4218 122.124 89.6239C122.325 89.826 122.652 89.826 122.853 89.6239Z" fill="#CED7E2"/>
<path d="M122.886 92.0677C123.087 91.8656 123.087 91.5381 122.886 91.336C122.684 91.134 122.357 91.134 122.156 91.336C121.954 91.5381 121.954 91.8656 122.156 92.0677C122.357 92.2697 122.684 92.2697 122.886 92.0677Z" fill="#CED7E2"/>
<path d="M125.242 88.63C125.444 88.428 125.444 88.1004 125.242 87.8984C125.041 87.6964 124.714 87.6964 124.513 87.8984C124.311 88.1004 124.311 88.428 124.513 88.63C124.714 88.8321 125.041 88.8321 125.242 88.63Z" fill="#CED7E2"/>
<path d="M125.275 91.074C125.476 90.872 125.476 90.5444 125.275 90.3424C125.073 90.1403 124.747 90.1403 124.545 90.3424C124.344 90.5444 124.344 90.872 124.545 91.074C124.747 91.2761 125.073 91.276 125.275 91.074Z" fill="#CED7E2"/>
<path d="M127.307 87.4567C127.592 87.4567 127.823 87.2251 127.823 86.9393C127.823 86.6536 127.592 86.422 127.307 86.422C127.022 86.422 126.791 86.6536 126.791 86.9393C126.791 87.2251 127.022 87.4567 127.307 87.4567Z" fill="url(#paint13_linear_105_5662)"/>
<path d="M127.636 89.6502C127.838 89.4481 127.838 89.1206 127.636 88.9185C127.435 88.7165 127.108 88.7165 126.907 88.9185C126.705 89.1206 126.705 89.4481 126.907 89.6502C127.108 89.8522 127.435 89.8522 127.636 89.6502Z" fill="#DFE8F0"/>
<path d="M127.669 92.0941C127.87 91.8921 127.87 91.5645 127.669 91.3624C127.467 91.1604 127.14 91.1604 126.939 91.3624C126.738 91.5645 126.738 91.8921 126.939 92.0941C127.14 92.2962 127.467 92.2962 127.669 92.0941Z" fill="#CED7E2"/>
<path d="M130.117 88.565C130.318 88.3629 130.318 88.0354 130.117 87.8334C129.915 87.6313 129.589 87.6313 129.387 87.8334C129.186 88.0354 129.186 88.3629 129.387 88.565C129.589 88.767 129.915 88.767 130.117 88.565Z" fill="#CED7E2"/>
<path d="M130.15 91.0089C130.351 90.8069 130.351 90.4793 130.15 90.2773C129.948 90.0753 129.621 90.0753 129.42 90.2773C129.219 90.4793 129.219 90.8069 129.42 91.0089C129.621 91.211 129.948 91.211 130.15 91.0089Z" fill="#CED7E2"/>
<path d="M132.478 87.3242C132.68 87.1222 132.68 86.7946 132.478 86.5925C132.277 86.3905 131.95 86.3905 131.749 86.5925C131.547 86.7946 131.547 87.1222 131.749 87.3242C131.95 87.5263 132.277 87.5263 132.478 87.3242Z" fill="#CED7E2"/>
<path d="M132.42 89.6766C132.621 89.4746 132.621 89.147 132.42 88.9449C132.218 88.7429 131.892 88.7429 131.69 88.9449C131.489 89.147 131.489 89.4746 131.69 89.6766C131.892 89.8787 132.218 89.8787 132.42 89.6766Z" fill="#CED7E2"/>
<path d="M132.452 92.1206C132.653 91.9186 132.653 91.591 132.452 91.3889C132.25 91.1869 131.924 91.1869 131.722 91.3889C131.521 91.591 131.521 91.9186 131.722 92.1206C131.924 92.3226 132.25 92.3226 132.452 92.1206Z" fill="#CED7E2"/>
<path d="M106.798 89.5268C106.798 90.8202 105.895 91.8549 104.606 92.1136C104.477 92.1136 104.348 92.1136 104.219 92.1136C102.8 92.1136 101.639 90.9495 101.639 89.5268C101.639 88.1041 102.8 86.9401 104.219 86.9401C104.348 86.9401 104.477 86.9401 104.606 86.9401C105.766 87.1987 106.798 88.2334 106.798 89.5268Z" fill="#B3BFCF"/>
<path d="M142.269 110.35H104.606V115.394H142.269V110.35Z" fill="#C1CAD6"/>
<path d="M142.14 112.937H104.606V111.643L142.14 107.634V112.937Z" fill="#B3BFCF"/>
<path d="M98.9302 112.031V110.35H136.464V115.394H98.9302V113.713" fill="#D6DEE8"/>
<path d="M136.593 110.35H98.9302V112.937H136.593V110.35Z" fill="#C9D2DE"/>
<path d="M141.624 111.514H99.0593C98.0274 111.514 97.1245 110.609 97.1245 109.574V100.65C97.1245 99.6151 98.0274 98.7097 99.0593 98.7097H141.624C142.656 98.7097 143.559 99.6151 143.559 100.65V109.574C143.559 110.738 142.785 111.514 141.624 111.514Z" fill="#DAE1ED"/>
<path d="M102.671 98.8391H135.691C136.464 98.8391 137.109 99.4858 137.109 100.262V110.221C137.109 110.997 136.464 111.644 135.691 111.644H98.5433C97.7694 111.644 97.1245 110.997 97.1245 110.221V100.262C97.1245 99.4858 97.7694 98.8391 98.5433 98.8391H99.4462" fill="#EDF1FA"/>
<path d="M113.215 103.493C113.416 103.291 113.416 102.964 113.215 102.761C113.014 102.559 112.687 102.559 112.485 102.761C112.284 102.964 112.284 103.291 112.485 103.493C112.687 103.695 113.014 103.695 113.215 103.493Z" fill="#CED7E2"/>
<path d="M113.248 105.937C113.449 105.735 113.449 105.407 113.248 105.205C113.046 105.003 112.72 105.003 112.518 105.205C112.317 105.407 112.317 105.735 112.518 105.937C112.72 106.139 113.046 106.139 113.248 105.937Z" fill="#CED7E2"/>
<path d="M113.189 108.29C113.39 108.087 113.39 107.76 113.189 107.558C112.987 107.356 112.661 107.356 112.459 107.558C112.258 107.76 112.258 108.087 112.459 108.29C112.661 108.492 112.987 108.492 113.189 108.29Z" fill="#DFE8F0"/>
<path d="M115.311 104.918C115.596 104.918 115.827 104.686 115.827 104.401C115.827 104.115 115.596 103.883 115.311 103.883C115.026 103.883 114.795 104.115 114.795 104.401C114.795 104.686 115.026 104.918 115.311 104.918Z" fill="url(#paint14_linear_105_5662)"/>
<path d="M115.669 107.204C115.871 107.002 115.871 106.675 115.669 106.473C115.468 106.27 115.141 106.27 114.94 106.473C114.738 106.675 114.738 107.002 114.94 107.204C115.141 107.406 115.468 107.406 115.669 107.204Z" fill="#CED7E2"/>
<path d="M117.998 103.52C118.2 103.317 118.2 102.99 117.998 102.788C117.797 102.586 117.47 102.586 117.269 102.788C117.067 102.99 117.067 103.317 117.269 103.52C117.47 103.722 117.797 103.722 117.998 103.52Z" fill="#CED7E2"/>
<path d="M118.031 105.963C118.232 105.761 118.232 105.434 118.031 105.232C117.829 105.03 117.503 105.03 117.301 105.232C117.1 105.434 117.1 105.761 117.301 105.963C117.503 106.165 117.829 106.165 118.031 105.963Z" fill="#DFE8F0"/>
<path d="M117.972 108.316C118.174 108.114 118.174 107.786 117.972 107.584C117.771 107.382 117.444 107.382 117.243 107.584C117.041 107.786 117.041 108.114 117.243 108.316C117.444 108.518 117.771 108.518 117.972 108.316Z" fill="#DFE8F0"/>
<path d="M120.42 104.787C120.622 104.585 120.622 104.257 120.42 104.055C120.219 103.853 119.892 103.853 119.691 104.055C119.489 104.257 119.489 104.585 119.691 104.787C119.892 104.989 120.219 104.989 120.42 104.787Z" fill="#DFE8F0"/>
<path d="M120.453 107.231C120.654 107.029 120.654 106.701 120.453 106.499C120.251 106.297 119.924 106.297 119.723 106.499C119.521 106.701 119.521 107.029 119.723 107.231C119.924 107.433 120.251 107.433 120.453 107.231Z" fill="#CED7E2"/>
<path d="M122.873 103.454C123.074 103.252 123.074 102.925 122.873 102.723C122.671 102.521 122.345 102.521 122.143 102.723C121.942 102.925 121.942 103.252 122.143 103.454C122.345 103.657 122.671 103.657 122.873 103.454Z" fill="#DFE8F0"/>
<path d="M122.905 105.898C123.107 105.696 123.107 105.369 122.905 105.167C122.704 104.965 122.377 104.965 122.176 105.167C121.974 105.369 121.974 105.696 122.176 105.898C122.377 106.1 122.704 106.1 122.905 105.898Z" fill="#CED7E2"/>
<path d="M122.847 108.251C123.048 108.049 123.048 107.721 122.847 107.519C122.645 107.317 122.319 107.317 122.117 107.519C121.916 107.721 121.916 108.049 122.117 108.251C122.319 108.453 122.645 108.453 122.847 108.251Z" fill="#CED7E2"/>
<path d="M125.203 104.813C125.405 104.611 125.405 104.284 125.203 104.082C125.002 103.879 124.675 103.879 124.474 104.082C124.272 104.284 124.272 104.611 124.474 104.813C124.675 105.015 125.002 105.015 125.203 104.813Z" fill="#CED7E2"/>
<path d="M125.236 107.257C125.438 107.055 125.438 106.727 125.236 106.525C125.035 106.323 124.708 106.323 124.507 106.525C124.305 106.727 124.305 107.055 124.507 107.257C124.708 107.459 125.035 107.459 125.236 107.257Z" fill="#DFE8F0"/>
<path d="M127.656 103.481C127.858 103.279 127.858 102.951 127.656 102.749C127.455 102.547 127.128 102.547 126.927 102.749C126.725 102.951 126.725 103.279 126.927 103.481C127.128 103.683 127.455 103.683 127.656 103.481Z" fill="#CED7E2"/>
<path d="M127.689 105.925C127.89 105.723 127.89 105.395 127.689 105.193C127.487 104.991 127.161 104.991 126.959 105.193C126.758 105.395 126.758 105.723 126.959 105.925C127.161 106.127 127.487 106.127 127.689 105.925Z" fill="#CED7E2"/>
<path d="M127.307 108.41C127.592 108.41 127.823 108.179 127.823 107.893C127.823 107.607 127.592 107.375 127.307 107.375C127.022 107.375 126.791 107.607 126.791 107.893C126.791 108.179 127.022 108.41 127.307 108.41Z" fill="url(#paint15_linear_105_5662)"/>
<path d="M130.078 104.748C130.279 104.546 130.279 104.219 130.078 104.016C129.876 103.814 129.55 103.814 129.348 104.016C129.147 104.219 129.147 104.546 129.348 104.748C129.55 104.95 129.876 104.95 130.078 104.748Z" fill="#DFE8F0"/>
<path d="M130.11 107.192C130.312 106.99 130.312 106.662 130.11 106.46C129.909 106.258 129.582 106.258 129.381 106.46C129.179 106.662 129.179 106.99 129.381 107.192C129.582 107.394 129.909 107.394 130.11 107.192Z" fill="#CED7E2"/>
<path d="M132.439 103.507C132.641 103.305 132.641 102.978 132.439 102.776C132.238 102.574 131.911 102.574 131.71 102.776C131.508 102.978 131.508 103.305 131.71 103.507C131.911 103.709 132.238 103.709 132.439 103.507Z" fill="#CED7E2"/>
<path d="M132.472 105.951C132.674 105.749 132.674 105.422 132.472 105.22C132.271 105.018 131.944 105.018 131.743 105.22C131.541 105.422 131.541 105.749 131.743 105.951C131.944 106.153 132.271 106.153 132.472 105.951Z" fill="#DFE8F0"/>
<path d="M132.413 108.304C132.615 108.102 132.615 107.774 132.413 107.572C132.212 107.37 131.885 107.37 131.684 107.572C131.482 107.774 131.482 108.102 131.684 108.304C131.885 108.506 132.212 108.506 132.413 108.304Z" fill="#CED7E2"/>
<path d="M106.798 105.823C106.798 107.117 105.895 108.151 104.606 108.41C104.477 108.41 104.348 108.41 104.219 108.41C102.8 108.41 101.639 107.246 101.639 105.823C101.639 104.401 102.8 103.237 104.219 103.237C104.348 103.237 104.477 103.237 104.606 103.237C105.766 103.366 106.798 104.401 106.798 105.823Z" fill="#B3BFCF"/>
<path d="M106.798 73.3597C106.798 74.6531 105.895 75.6878 104.605 75.9465C103.315 75.6878 102.413 74.6531 102.413 73.3597C102.413 72.0663 103.315 71.0316 104.605 70.7729C105.766 70.9023 106.798 72.0663 106.798 73.3597Z" fill="#C9D2DE"/>
<path d="M106.798 89.5268C106.798 90.8202 105.895 91.8549 104.605 92.1136C103.315 91.8549 102.413 90.8202 102.413 89.5268C102.413 88.2334 103.315 87.1987 104.605 86.9401C105.766 87.1987 106.798 88.2334 106.798 89.5268Z" fill="#C9D2DE"/>
<path d="M106.798 105.823C106.798 107.117 105.895 108.151 104.605 108.41C103.315 108.151 102.413 107.117 102.413 105.823C102.413 104.53 103.315 103.495 104.605 103.237C105.766 103.366 106.798 104.401 106.798 105.823Z" fill="#C9D2DE"/>
<path d="M54.173 116.946C48.3688 117.076 41.2747 116.946 36.3733 116.817C31.4719 116.946 24.3779 117.076 18.5736 116.946C24.3779 113.713 26.3126 107.505 26.6996 103.495H46.0471C46.305 107.505 48.3688 113.713 54.173 116.946Z" fill="url(#paint16_linear_105_5662)"/>
<path d="M72.8756 52.2777V102.849C72.8756 104.013 71.9727 105.047 70.6829 105.047H2.19272C1.03187 105.047 0 104.142 0 102.849V52.2777C0 51.1137 0.902883 50.079 2.19272 50.079H70.8119C71.9727 50.079 72.8756 51.1137 72.8756 52.2777Z" fill="#F5F8FF"/>
<path d="M72.8756 52.2777V95.8645H0V52.2777C0 51.1137 0.902883 50.079 2.19272 50.079H70.8119C71.9727 50.079 72.8756 51.1137 72.8756 52.2777Z" fill="#172D45"/>
<path d="M70.1669 52.7949H2.45068V93.4069H70.1669V52.7949Z" fill="white"/>
<path d="M36.2442 102.461C37.2415 102.461 38.05 101.65 38.05 100.65C38.05 99.6499 37.2415 98.8392 36.2442 98.8392C35.2469 98.8392 34.4385 99.6499 34.4385 100.65C34.4385 101.65 35.2469 102.461 36.2442 102.461Z" fill="#DBDFE6"/>
<path d="M5.54634 87.1989H3.99854V88.7509H5.54634V87.1989Z" fill="#EAEEF9"/>
<path d="M5.54634 84.2241H3.99854V85.7762H5.54634V84.2241Z" fill="#EAEEF9"/>
<path d="M5.54634 81.12H3.99854V82.672H5.54634V81.12Z" fill="#EAEEF9"/>
<path d="M5.54634 78.0159H3.99854V79.5679H5.54634V78.0159Z" fill="url(#paint17_linear_105_5662)"/>
<path d="M5.54634 75.0411H3.99854V76.5932H5.54634V75.0411Z" fill="#EAEEF9"/>
<path d="M5.54634 71.937H3.99854V73.4891H5.54634V71.937Z" fill="#F3F5FA"/>
<path d="M8.64204 90.303H7.09424V91.855H8.64204V90.303Z" fill="#EAEEF9"/>
<path d="M8.64204 87.1989H7.09424V88.7509H8.64204V87.1989Z" fill="#EAEEF9"/>
<path d="M8.64204 81.12H7.09424V82.672H8.64204V81.12Z" fill="#EAEEF9"/>
<path d="M8.64204 78.0159H7.09424V79.5679H8.64204V78.0159Z" fill="#EAEEF9"/>
<path d="M8.64204 75.0411H7.09424V76.5932H8.64204V75.0411Z" fill="#EAEEF9"/>
<path d="M8.64204 71.937H7.09424V73.4891H8.64204V71.937Z" fill="#EAEEF9"/>
<path d="M8.64204 68.9623H7.09424V70.5143H8.64204V68.9623Z" fill="#EAEEF9"/>
<path d="M8.64204 65.8582H7.09424V67.4102H8.64204V65.8582Z" fill="url(#paint18_linear_105_5662)"/>
<path d="M11.8664 90.303H10.3186V91.855H11.8664V90.303Z" fill="#EAEEF9"/>
<path d="M11.8664 87.1989H10.3186V88.7509H11.8664V87.1989Z" fill="#EAEEF9"/>
<path d="M11.8664 84.2241H10.3186V85.7762H11.8664V84.2241Z" fill="#EAEEF9"/>
<path d="M11.8664 81.12H10.3186V82.672H11.8664V81.12Z" fill="#EAEEF9"/>
<path d="M11.8664 78.0159H10.3186V79.5679H11.8664V78.0159Z" fill="url(#paint19_linear_105_5662)"/>
<path d="M11.8664 75.0411H10.3186V76.5932H11.8664V75.0411Z" fill="#F3F5FA"/>
<path d="M11.8664 71.937H10.3186V73.4891H11.8664V71.937Z" fill="#EAEEF9"/>
<path d="M11.8664 68.9623H10.3186V70.5143H11.8664V68.9623Z" fill="#F3F5FA"/>
<path d="M11.8664 65.8582H10.3186V67.4102H11.8664V65.8582Z" fill="#EAEEF9"/>
<path d="M11.8664 62.8834H10.3186V64.4355H11.8664V62.8834Z" fill="#F3F5FA"/>
<path d="M14.9621 90.303H13.4143V91.855H14.9621V90.303Z" fill="#EAEEF9"/>
<path d="M14.9621 87.1989H13.4143V88.7509H14.9621V87.1989Z" fill="#EAEEF9"/>
<path d="M14.9621 84.2241H13.4143V85.7762H14.9621V84.2241Z" fill="#EAEEF9"/>
<path d="M14.9621 81.12H13.4143V82.672H14.9621V81.12Z" fill="#EAEEF9"/>
<path d="M14.9621 78.0159H13.4143V79.5679H14.9621V78.0159Z" fill="#EAEEF9"/>
<path d="M14.9621 75.0411H13.4143V76.5932H14.9621V75.0411Z" fill="#F3F5FA"/>
<path d="M14.9621 71.937H13.4143V73.4891H14.9621V71.937Z" fill="#EAEEF9"/>
<path d="M14.9621 68.9623H13.4143V70.5143H14.9621V68.9623Z" fill="#EAEEF9"/>
<path d="M18.1867 90.303H16.6389V91.855H18.1867V90.303Z" fill="#EAEEF9"/>
<path d="M18.1867 87.1989H16.6389V88.7509H18.1867V87.1989Z" fill="#EAEEF9"/>
<path d="M18.1867 84.2241H16.6389V85.7762H18.1867V84.2241Z" fill="#EAEEF9"/>
<path d="M18.1867 78.0159H16.6389V79.5679H18.1867V78.0159Z" fill="#EAEEF9"/>
<path d="M18.1867 75.0411H16.6389V76.5932H18.1867V75.0411Z" fill="url(#paint20_linear_105_5662)"/>
<path d="M18.1867 71.937H16.6389V73.4891H18.1867V71.937Z" fill="#F3F5FA"/>
<path d="M21.2822 90.303H19.7344V91.855H21.2822V90.303Z" fill="#EAEEF9"/>
<path d="M21.2822 87.1989H19.7344V88.7509H21.2822V87.1989Z" fill="#EAEEF9"/>
<path d="M21.2822 84.2241H19.7344V85.7762H21.2822V84.2241Z" fill="#EAEEF9"/>
<path d="M21.2822 81.12H19.7344V82.672H21.2822V81.12Z" fill="#EAEEF9"/>
<path d="M21.2822 78.0159H19.7344V79.5679H21.2822V78.0159Z" fill="#EAEEF9"/>
<path d="M21.2822 75.0411H19.7344V76.5932H21.2822V75.0411Z" fill="#EAEEF9"/>
<path d="M21.2822 71.937H19.7344V73.4891H21.2822V71.937Z" fill="#F3F5FA"/>
<path d="M21.2822 68.9623H19.7344V70.5143H21.2822V68.9623Z" fill="#EAEEF9"/>
<path d="M21.2822 65.8582H19.7344V67.4102H21.2822V65.8582Z" fill="#EAEEF9"/>
<path d="M24.3779 90.303H22.8301V91.855H24.3779V90.303Z" fill="#EAEEF9"/>
<path d="M24.3779 87.1989H22.8301V88.7509H24.3779V87.1989Z" fill="#EAEEF9"/>
<path d="M24.3779 84.2241H22.8301V85.7762H24.3779V84.2241Z" fill="#EAEEF9"/>
<path d="M24.3779 78.0159H22.8301V79.5679H24.3779V78.0159Z" fill="#EAEEF9"/>
<path d="M24.3779 75.0411H22.8301V76.5932H24.3779V75.0411Z" fill="#F3F5FA"/>
<path d="M27.6025 90.303H26.0547V91.855H27.6025V90.303Z" fill="url(#paint21_linear_105_5662)"/>
<path d="M27.6025 87.1989H26.0547V88.7509H27.6025V87.1989Z" fill="#EAEEF9"/>
<path d="M27.6025 84.2241H26.0547V85.7762H27.6025V84.2241Z" fill="#EAEEF9"/>
<path d="M27.6025 81.12H26.0547V82.672H27.6025V81.12Z" fill="#F3F5FA"/>
<path d="M27.6025 78.0159H26.0547V79.5679H27.6025V78.0159Z" fill="#EAEEF9"/>
<path d="M27.6025 71.937H26.0547V73.4891H27.6025V71.937Z" fill="#EAEEF9"/>
<path d="M27.6025 68.9623H26.0547V70.5143H27.6025V68.9623Z" fill="#F3F5FA"/>
<path d="M30.6982 90.303H29.1504V91.855H30.6982V90.303Z" fill="#EAEEF9"/>
<path d="M30.6982 87.1989H29.1504V88.7509H30.6982V87.1989Z" fill="#EAEEF9"/>
<path d="M30.6982 84.2241H29.1504V85.7762H30.6982V84.2241Z" fill="url(#paint22_linear_105_5662)"/>
<path d="M30.6982 81.12H29.1504V82.672H30.6982V81.12Z" fill="#EAEEF9"/>
<path d="M30.6982 78.0159H29.1504V79.5679H30.6982V78.0159Z" fill="#EAEEF9"/>
<path d="M30.6982 75.0411H29.1504V76.5932H30.6982V75.0411Z" fill="#EAEEF9"/>
<path d="M30.6982 71.937H29.1504V73.4891H30.6982V71.937Z" fill="#F3F5FA"/>
<path d="M30.6982 65.8582H29.1504V67.4102H30.6982V65.8582Z" fill="#EAEEF9"/>
<path d="M30.6982 62.8834H29.1504V64.4355H30.6982V62.8834Z" fill="#F3F5FA"/>
<path d="M52.8833 87.1989H51.3354V88.7509H52.8833V87.1989Z" fill="#EAEEF9"/>
<path d="M52.8833 81.12H51.3354V82.672H52.8833V81.12Z" fill="#EAEEF9"/>
<path d="M52.8833 78.0159H51.3354V79.5679H52.8833V78.0159Z" fill="#EAEEF9"/>
<path d="M52.8833 75.0411H51.3354V76.5932H52.8833V75.0411Z" fill="#F3F5FA"/>
<path d="M52.8833 71.937H51.3354V73.4891H52.8833V71.937Z" fill="#EAEEF9"/>
<path d="M52.8833 68.9623H51.3354V70.5143H52.8833V68.9623Z" fill="#EAEEF9"/>
<path d="M55.9785 90.303H54.4307V91.855H55.9785V90.303Z" fill="#EAEEF9"/>
<path d="M55.9785 87.1989H54.4307V88.7509H55.9785V87.1989Z" fill="#EAEEF9"/>
<path d="M55.9785 84.2241H54.4307V85.7762H55.9785V84.2241Z" fill="#EAEEF9"/>
<path d="M55.9785 81.12H54.4307V82.672H55.9785V81.12Z" fill="#EAEEF9"/>
<path d="M55.9785 78.0159H54.4307V79.5679H55.9785V78.0159Z" fill="#EAEEF9"/>
<path d="M55.9785 75.0411H54.4307V76.5932H55.9785V75.0411Z" fill="url(#paint23_linear_105_5662)"/>
<path d="M55.9785 71.937H54.4307V73.4891H55.9785V71.937Z" fill="#F3F5FA"/>
<path d="M59.2033 90.303H57.6555V91.855H59.2033V90.303Z" fill="#EAEEF9"/>
<path d="M59.2033 87.1989H57.6555V88.7509H59.2033V87.1989Z" fill="#EAEEF9"/>
<path d="M59.2033 84.2241H57.6555V85.7762H59.2033V84.2241Z" fill="#EAEEF9"/>
<path d="M59.2033 81.12H57.6555V82.672H59.2033V81.12Z" fill="#EAEEF9"/>
<path d="M59.2033 78.0159H57.6555V79.5679H59.2033V78.0159Z" fill="#EAEEF9"/>
<path d="M59.2033 75.0411H57.6555V76.5932H59.2033V75.0411Z" fill="#EAEEF9"/>
<path d="M59.2033 71.937H57.6555V73.4891H59.2033V71.937Z" fill="#F3F5FA"/>
<path d="M59.2033 68.9623H57.6555V70.5143H59.2033V68.9623Z" fill="#EAEEF9"/>
<path d="M59.2033 65.8582H57.6555V67.4102H59.2033V65.8582Z" fill="#EAEEF9"/>
<path d="M62.2988 90.303H60.751V91.855H62.2988V90.303Z" fill="#EAEEF9"/>
<path d="M62.2988 87.1989H60.751V88.7509H62.2988V87.1989Z" fill="#EAEEF9"/>
<path d="M62.2988 84.2241H60.751V85.7762H62.2988V84.2241Z" fill="#EAEEF9"/>
<path d="M62.2988 81.12H60.751V82.672H62.2988V81.12Z" fill="#EAEEF9"/>
<path d="M62.2988 78.0159H60.751V79.5679H62.2988V78.0159Z" fill="#EAEEF9"/>
<path d="M65.5234 90.303H63.9756V91.855H65.5234V90.303Z" fill="url(#paint24_linear_105_5662)"/>
<path d="M65.5234 87.1989H63.9756V88.7509H65.5234V87.1989Z" fill="#EAEEF9"/>
<path d="M65.5234 84.2241H63.9756V85.7762H65.5234V84.2241Z" fill="#EAEEF9"/>
<path d="M65.5234 81.12H63.9756V82.672H65.5234V81.12Z" fill="#F3F5FA"/>
<path d="M65.5234 78.0159H63.9756V79.5679H65.5234V78.0159Z" fill="#EAEEF9"/>
<path d="M65.5234 75.0411H63.9756V76.5932H65.5234V75.0411Z" fill="url(#paint25_linear_105_5662)"/>
<path d="M65.5234 71.937H63.9756V73.4891H65.5234V71.937Z" fill="#EAEEF9"/>
<path d="M65.5234 68.9623H63.9756V70.5143H65.5234V68.9623Z" fill="#F3F5FA"/>
<path d="M68.6191 90.303H67.0713V91.855H68.6191V90.303Z" fill="#EAEEF9"/>
<path d="M68.6191 87.1989H67.0713V88.7509H68.6191V87.1989Z" fill="#EAEEF9"/>
<path d="M68.6191 84.2241H67.0713V85.7762H68.6191V84.2241Z" fill="url(#paint26_linear_105_5662)"/>
<path d="M68.6191 81.12H67.0713V82.672H68.6191V81.12Z" fill="#EAEEF9"/>
<path d="M68.6191 78.0159H67.0713V79.5679H68.6191V78.0159Z" fill="#EAEEF9"/>
<path d="M68.6191 75.0411H67.0713V76.5932H68.6191V75.0411Z" fill="#EAEEF9"/>
<path d="M68.6191 71.937H67.0713V73.4891H68.6191V71.937Z" fill="#F3F5FA"/>
<path d="M68.6191 65.8582H67.0713V67.4102H68.6191V65.8582Z" fill="#EAEEF9"/>
<path d="M68.6191 62.8834H67.0713V64.4355H68.6191V62.8834Z" fill="#F3F5FA"/>
<path d="M33.9228 90.303H32.375V91.855H33.9228V90.303Z" fill="#EAEEF9"/>
<path d="M33.9228 87.1989H32.375V88.7509H33.9228V87.1989Z" fill="#EAEEF9"/>
<path d="M33.9228 84.2241H32.375V85.7762H33.9228V84.2241Z" fill="#EAEEF9"/>
<path d="M33.9228 78.0159H32.375V79.5679H33.9228V78.0159Z" fill="#F3F5FA"/>
<path d="M33.9228 71.937H32.375V73.4891H33.9228V71.937Z" fill="#EAEEF9"/>
<path d="M33.9228 68.9623H32.375V70.5143H33.9228V68.9623Z" fill="#F3F5FA"/>
<path d="M33.9228 65.8582H32.375V67.4102H33.9228V65.8582Z" fill="#EAEEF9"/>
<path d="M33.9228 62.8834H32.375V64.4355H33.9228V62.8834Z" fill="#F3F5FA"/>
<path d="M37.0185 87.1989H35.4707V88.7509H37.0185V87.1989Z" fill="#EAEEF9"/>
<path d="M37.0185 84.2241H35.4707V85.7762H37.0185V84.2241Z" fill="#F3F5FA"/>
<path d="M37.0185 81.12H35.4707V82.672H37.0185V81.12Z" fill="#EAEEF9"/>
<path d="M37.0185 78.0159H35.4707V79.5679H37.0185V78.0159Z" fill="#EAEEF9"/>
<path d="M37.0185 75.0411H35.4707V76.5932H37.0185V75.0411Z" fill="url(#paint27_linear_105_5662)"/>
<path d="M37.0185 71.937H35.4707V73.4891H37.0185V71.937Z" fill="#EAEEF9"/>
<path d="M37.0185 68.9623H35.4707V70.5143H37.0185V68.9623Z" fill="#EAEEF9"/>
<path d="M40.2426 90.303H38.6948V91.855H40.2426V90.303Z" fill="#EAEEF9"/>
<path d="M40.2426 84.2241H38.6948V85.7762H40.2426V84.2241Z" fill="#EAEEF9"/>
<path d="M40.2426 81.12H38.6948V82.672H40.2426V81.12Z" fill="url(#paint28_linear_105_5662)"/>
<path d="M40.2426 78.0159H38.6948V79.5679H40.2426V78.0159Z" fill="#EAEEF9"/>
<path d="M40.2426 75.0411H38.6948V76.5932H40.2426V75.0411Z" fill="#F3F5FA"/>
<path d="M40.2426 71.937H38.6948V73.4891H40.2426V71.937Z" fill="url(#paint29_linear_105_5662)"/>
<path d="M43.3383 90.303H41.7905V91.855H43.3383V90.303Z" fill="#EAEEF9"/>
<path d="M43.3383 81.12H41.7905V82.672H43.3383V81.12Z" fill="#F3F5FA"/>
<path d="M43.3383 78.0159H41.7905V79.5679H43.3383V78.0159Z" fill="#EAEEF9"/>
<path d="M43.3383 75.0411H41.7905V76.5932H43.3383V75.0411Z" fill="#EAEEF9"/>
<path d="M46.5629 90.303H45.0151V91.855H46.5629V90.303Z" fill="#EAEEF9"/>
<path d="M46.5629 87.1989H45.0151V88.7509H46.5629V87.1989Z" fill="#EAEEF9"/>
<path d="M46.5629 84.2241H45.0151V85.7762H46.5629V84.2241Z" fill="#EAEEF9"/>
<path d="M46.5629 81.12H45.0151V82.672H46.5629V81.12Z" fill="#EAEEF9"/>
<path d="M46.5629 78.0159H45.0151V79.5679H46.5629V78.0159Z" fill="#F3F5FA"/>
<path d="M46.5629 75.0411H45.0151V76.5932H46.5629V75.0411Z" fill="#EAEEF9"/>
<path d="M46.5629 71.937H45.0151V73.4891H46.5629V71.937Z" fill="url(#paint30_linear_105_5662)"/>
<path d="M46.5629 68.9623H45.0151V70.5143H46.5629V68.9623Z" fill="#EAEEF9"/>
<path d="M49.6586 90.303H48.1108V91.855H49.6586V90.303Z" fill="#EAEEF9"/>
<path d="M49.6586 84.2241H48.1108V85.7762H49.6586V84.2241Z" fill="#EAEEF9"/>
<path d="M49.6586 81.12H48.1108V82.672H49.6586V81.12Z" fill="#F3F5FA"/>
<path d="M36.5023 60.9432C36.1154 60.9432 35.8574 60.6845 35.8574 60.2965V59.0031C35.8574 58.6151 36.1154 58.3564 36.5023 58.3564C36.8893 58.3564 37.1473 58.6151 37.1473 59.0031V60.2965C37.1473 60.6845 36.7603 60.9432 36.5023 60.9432Z" fill="#718CFF"/>
<path d="M36.5023 55.899C36.1154 55.899 35.8574 55.6403 35.8574 55.2523V52.6656C35.8574 52.2776 36.1154 52.0189 36.5023 52.0189C36.8893 52.0189 37.1473 52.2776 37.1473 52.6656V55.2523C37.1473 55.6403 36.7603 55.899 36.5023 55.899ZM122.663 54.4763C122.276 54.4763 122.018 54.2176 122.018 53.8296V51.2429C122.018 50.8548 122.276 50.5962 122.663 50.5962C123.05 50.5962 123.308 50.8548 123.308 51.2429V53.8296C123.308 54.0883 123.05 54.4763 122.663 54.4763ZM36.5023 49.5615C36.1154 49.5615 35.8574 49.3028 35.8574 48.9148V46.328C35.8574 45.94 36.1154 45.6813 36.5023 45.6813C36.8893 45.6813 37.1473 45.94 37.1473 46.328V48.9148C37.1473 49.3028 36.7603 49.5615 36.5023 49.5615ZM122.663 48.1388C122.276 48.1388 122.018 47.8801 122.018 47.4921V44.9053C122.018 44.5173 122.276 44.2586 122.663 44.2586C123.05 44.2586 123.308 44.5173 123.308 44.9053V47.4921C123.308 47.7507 123.05 48.1388 122.663 48.1388ZM36.5023 43.2239C36.1154 43.2239 35.8574 42.9653 35.8574 42.5772V39.9905C35.8574 39.6025 36.1154 39.3438 36.5023 39.3438C36.8893 39.3438 37.1473 39.6025 37.1473 39.9905V42.5772C37.1473 42.9653 36.7603 43.2239 36.5023 43.2239ZM122.663 41.8012C122.276 41.8012 122.018 41.5425 122.018 41.1545V38.5678C122.018 38.1798 122.276 37.9211 122.663 37.9211C123.05 37.9211 123.308 38.1798 123.308 38.5678V41.1545C123.308 41.4132 123.05 41.8012 122.663 41.8012ZM36.5023 36.757C36.1154 36.757 35.8574 36.4984 35.8574 36.1104V35.981C35.8574 35.0757 36.1154 34.1703 36.5023 33.3943C36.6313 33.1356 37.0183 33.0063 37.4052 33.1356C37.6632 33.2649 37.7922 33.6529 37.6632 34.041C37.4052 34.6876 37.1473 35.3343 37.1473 36.1104C37.1473 36.4984 36.7603 36.757 36.5023 36.757ZM122.534 35.4637C122.276 35.4637 122.018 35.3343 121.889 34.9463C121.76 34.1703 121.373 33.5236 120.857 33.0063C120.599 32.7476 120.599 32.3596 120.857 32.1009C121.115 31.8422 121.502 31.8422 121.76 32.1009C122.405 32.7476 122.792 33.6529 123.05 34.5583C123.179 34.9463 122.921 35.205 122.534 35.3343C122.663 35.4637 122.534 35.4637 122.534 35.4637ZM39.7269 31.8422C39.469 31.8422 39.211 31.7129 39.082 31.4542C38.953 31.0662 39.082 30.8075 39.469 30.5488C40.2429 30.2902 41.0168 30.0315 41.7907 30.0315H42.1776C42.5646 30.0315 42.8225 30.2902 42.8225 30.6782C42.8225 31.0662 42.5646 31.4542 42.1776 31.4542H41.7907C41.1457 31.4542 40.5008 31.5835 39.9849 31.8422C39.8559 31.8422 39.7269 31.8422 39.7269 31.8422ZM118.02 31.4542C117.762 31.4542 117.504 31.4542 117.375 31.4542H115.44C115.053 31.4542 114.795 31.1955 114.795 30.8075C114.795 30.4195 115.053 30.1608 115.44 30.1608H117.375C117.633 30.1608 117.891 30.1608 118.149 30.1608C118.536 30.1608 118.794 30.5488 118.665 30.9369C118.665 31.1955 118.407 31.4542 118.02 31.4542ZM111.7 31.4542H109.12C108.733 31.4542 108.475 31.1955 108.475 30.8075C108.475 30.4195 108.733 30.1608 109.12 30.1608H111.7C112.087 30.1608 112.345 30.4195 112.345 30.8075C112.345 31.1955 112.087 31.4542 111.7 31.4542ZM105.379 31.4542H102.8C102.413 31.4542 102.155 31.1955 102.155 30.8075C102.155 30.4195 102.413 30.1608 102.8 30.1608H105.379C105.766 30.1608 106.024 30.4195 106.024 30.8075C106.024 31.1955 105.766 31.4542 105.379 31.4542ZM99.0593 31.4542H96.4796C96.0926 31.4542 95.8347 31.1955 95.8347 30.8075C95.8347 30.4195 96.0926 30.1608 96.4796 30.1608H99.0593C99.4462 30.1608 99.7042 30.4195 99.7042 30.8075C99.7042 31.1955 99.4462 31.4542 99.0593 31.4542ZM92.7391 31.4542H90.1594C89.7725 31.4542 89.5145 31.1955 89.5145 30.8075C89.5145 30.4195 89.7725 30.1608 90.1594 30.1608H92.7391C93.126 30.1608 93.384 30.4195 93.384 30.8075C93.384 31.1955 93.126 31.4542 92.7391 31.4542ZM86.4189 31.4542H83.8392C83.4523 31.4542 83.1943 31.1955 83.1943 30.8075C83.1943 30.4195 83.5813 30.1608 83.8392 30.1608H86.4189C86.8058 30.1608 87.0638 30.4195 87.0638 30.8075C87.0638 31.1955 86.8058 31.4542 86.4189 31.4542ZM80.0987 31.4542H77.519C77.1321 31.4542 76.8741 31.1955 76.8741 30.8075C76.8741 30.4195 77.1321 30.1608 77.519 30.1608H80.0987C80.4857 30.1608 80.7436 30.4195 80.7436 30.8075C80.7436 31.1955 80.4857 31.4542 80.0987 31.4542ZM73.7785 31.4542H71.1989C70.8119 31.4542 70.5539 31.1955 70.5539 30.8075C70.5539 30.4195 70.9409 30.1608 71.1989 30.1608H73.7785C74.1655 30.1608 74.4234 30.4195 74.4234 30.8075C74.4234 31.1955 74.1655 31.4542 73.7785 31.4542ZM67.4583 31.4542H64.8787C64.4917 31.4542 64.2338 31.1955 64.2338 30.8075C64.2338 30.4195 64.4917 30.1608 64.8787 30.1608H67.4583C67.8453 30.1608 68.1033 30.4195 68.1033 30.8075C68.1033 31.1955 67.8453 31.4542 67.4583 31.4542ZM61.1382 31.4542H58.5585C58.1715 31.4542 57.9136 31.1955 57.9136 30.8075C57.9136 30.4195 58.1715 30.1608 58.5585 30.1608H61.1382C61.5251 30.1608 61.7831 30.4195 61.7831 30.8075C61.7831 31.1955 61.5251 31.4542 61.1382 31.4542ZM54.818 31.4542H52.2383C51.8514 31.4542 51.5934 31.1955 51.5934 30.8075C51.5934 30.4195 51.8514 30.1608 52.2383 30.1608H54.818C55.2049 30.1608 55.4629 30.4195 55.4629 30.8075C55.4629 31.1955 55.2049 31.4542 54.818 31.4542ZM48.4978 31.4542H45.9181C45.5312 31.4542 45.2732 31.1955 45.2732 30.8075C45.2732 30.4195 45.5312 30.1608 45.9181 30.1608H48.4978C48.8847 30.1608 49.1427 30.4195 49.1427 30.8075C49.1427 31.1955 48.8847 31.4542 48.4978 31.4542Z" fill="#718CFF"/>
<path d="M122.663 59.5205C122.276 59.5205 122.018 59.2618 122.018 58.8738V57.5804C122.018 57.1924 122.276 56.9337 122.663 56.9337C123.05 56.9337 123.308 57.1924 123.308 57.5804V58.8738C123.308 59.2618 123.05 59.5205 122.663 59.5205Z" fill="#718CFF"/>
<g filter="url(#filter0_d_105_5662)">
<path d="M111.055 31.5833C111.055 34.8167 109.636 37.7915 107.443 39.8609C105.379 41.6716 102.8 42.8357 99.833 42.8357C99.833 42.8357 99.1881 42.8357 84.484 42.8357C83.9681 42.8357 83.4521 42.8357 82.8072 42.8357C81.9043 42.8357 81.0015 42.8357 80.0986 42.8357H62.5568C55.0758 43.0943 49.1426 37.0155 49.1426 29.9019C49.1426 22.659 55.0758 16.7095 62.5568 16.9682H62.6858C63.4597 14.6401 64.4916 12.5707 65.7814 10.8893C65.7814 10.8893 65.7814 10.8893 65.7814 10.76C68.1031 7.65585 71.0697 5.45711 74.4233 4.29307C74.5523 4.29307 74.8103 4.16374 74.9392 4.16374C79.4537 2.61168 84.484 2.74102 88.8695 4.42241C95.1896 6.75049 100.349 12.1827 101.381 20.4603C106.798 21.2363 111.055 25.8924 111.055 31.5833Z" fill="url(#paint31_linear_105_5662)"/>
</g>
<path d="M99.8331 42.8359C106.031 42.8359 111.055 37.7981 111.055 31.5835C111.055 25.369 106.031 20.3312 99.8331 20.3312C93.6356 20.3312 88.6116 25.369 88.6116 31.5835C88.6116 37.7981 93.6356 42.8359 99.8331 42.8359Z" fill="url(#paint32_linear_105_5662)"/>
<path d="M81.5172 42.836C92.4875 42.836 101.381 33.9184 101.381 22.918C101.381 11.9176 92.4875 3 81.5172 3C70.547 3 61.6538 11.9176 61.6538 22.918C61.6538 33.9184 70.547 42.836 81.5172 42.836Z" fill="url(#paint33_linear_105_5662)"/>
<path d="M107.511 39.9505C105.448 41.7612 102.868 42.9253 99.9013 42.9253C99.9013 42.9253 99.2564 42.9253 84.5523 42.9253L84.4233 42.7959L75.1365 33.4836L75.2655 30.1209L69.7192 24.1713L75.7815 20.1619L82.1016 16.2817L89.3247 18.9978L99.7723 31.1556L107.511 39.9505Z" fill="url(#paint34_linear_105_5662)"/>
<path d="M76.6841 24.3005C77.0711 23.9125 77.0711 23.1365 76.6841 22.7485C76.2972 22.3605 75.6522 22.3605 75.0073 22.3605C76.9421 17.3163 83.5202 16.2816 86.8738 20.2911C88.1636 21.7138 90.2274 19.9031 89.0665 18.351C85.455 14.2122 79.1348 13.6949 75.0073 17.3163C73.4595 18.6097 72.4277 20.4204 71.9117 22.3605C70.4929 22.3605 70.2349 22.3605 69.977 22.7485C69.59 23.1365 69.59 23.9125 69.977 24.3005C73.8465 28.1807 72.8146 28.1807 76.6841 24.3005Z" fill="url(#paint35_linear_105_5662)"/>
<path d="M93.7103 26.758L91.1306 24.1713C90.7436 23.7832 89.9697 23.7832 89.5828 24.1713L87.0031 26.758C86.6162 27.146 86.6162 27.922 87.0031 28.3101C87.3901 28.6981 88.035 28.6981 88.6799 28.6981C86.7452 33.7422 80.038 34.9063 76.5555 30.6381C76.0395 29.9914 75.1367 29.8621 74.4917 30.3795C72.299 32.1902 77.4584 36.1997 82.1018 36.1997C86.6162 36.1997 90.4857 33.0956 91.7755 28.8274C93.1943 28.8274 93.4523 28.8274 93.7103 28.4394C94.0972 27.922 94.0972 27.2754 93.7103 26.758Z" fill="url(#paint36_linear_105_5662)"/>
<path d="M122.663 63.2714C123.66 63.2714 124.469 62.4607 124.469 61.4606C124.469 60.4606 123.66 59.6499 122.663 59.6499C121.666 59.6499 120.857 60.4606 120.857 61.4606C120.857 62.4607 121.666 63.2714 122.663 63.2714Z" stroke="#718CFF" stroke-miterlimit="10" stroke-linecap="round" stroke-linejoin="round"/>
<path d="M36.5025 64.1767C37.4998 64.1767 38.3083 63.366 38.3083 62.366C38.3083 61.3659 37.4998 60.5552 36.5025 60.5552C35.5052 60.5552 34.6968 61.3659 34.6968 62.366C34.6968 63.366 35.5052 64.1767 36.5025 64.1767Z" stroke="#718CFF" stroke-miterlimit="10" stroke-linecap="round" stroke-linejoin="round"/>
<path d="M1.41882 116.041H170" stroke="#EBF0F6" stroke-width="2" stroke-miterlimit="10" stroke-linecap="round" stroke-linejoin="round"/>
<defs>
<filter id="filter0_d_105_5662" x="41.1426" y="0.0761719" width="77.9121" height="55.7675" filterUnits="userSpaceOnUse" color-interpolation-filters="sRGB">
<feFlood flood-opacity="0" result="BackgroundImageFix"/>
<feColorMatrix in="SourceAlpha" type="matrix" values="0 0 0 0 0 0 0 0 0 0 0 0 0 0 0 0 0 0 127 0" result="hardAlpha"/>
<feOffset dy="5"/>
<feGaussianBlur stdDeviation="4"/>
<feColorMatrix type="matrix" values="0 0 0 0 0.1125 0 0 0 0 0.295916 0 0 0 0 1 0 0 0 0.22 0"/>
<feBlend mode="normal" in2="BackgroundImageFix" result="effect1_dropShadow_105_5662"/>
<feBlend mode="normal" in="SourceGraphic" in2="effect1_dropShadow_105_5662" result="shape"/>
</filter>
<linearGradient id="paint0_linear_105_5662" x1="132.959" y1="77.3154" x2="134.005" y2="77.3154" gradientUnits="userSpaceOnUse">
<stop stop-color="#FF66A9"/>
<stop offset="1" stop-color="#F53689"/>
</linearGradient>
<linearGradient id="paint1_linear_105_5662" x1="128.357" y1="92.8372" x2="129.403" y2="92.8372" gradientUnits="userSpaceOnUse">
<stop stop-color="#FF66A9"/>
<stop offset="1" stop-color="#F53689"/>
</linearGradient>
<linearGradient id="paint2_linear_105_5662" x1="142.163" y1="88.2218" x2="143.209" y2="88.2218" gradientUnits="userSpaceOnUse">
<stop stop-color="#FF66A9"/>
<stop offset="1" stop-color="#F53689"/>
</linearGradient>
<linearGradient id="paint3_linear_105_5662" x1="130.658" y1="105.003" x2="131.704" y2="105.003" gradientUnits="userSpaceOnUse">
<stop stop-color="#FF66A9"/>
<stop offset="1" stop-color="#F53689"/>
</linearGradient>
<linearGradient id="paint4_linear_105_5662" x1="142.163" y1="108.359" x2="143.209" y2="108.359" gradientUnits="userSpaceOnUse">
<stop stop-color="#FF66A9"/>
<stop offset="1" stop-color="#F53689"/>
</linearGradient>
<linearGradient id="paint5_linear_105_5662" x1="104.434" y1="77.3152" x2="105.48" y2="77.3152" gradientUnits="userSpaceOnUse">
<stop stop-color="#FF66A9"/>
<stop offset="1" stop-color="#F53689"/>
</linearGradient>
<linearGradient id="paint6_linear_105_5662" x1="99.832" y1="92.8372" x2="100.878" y2="92.8372" gradientUnits="userSpaceOnUse">
<stop stop-color="#FF66A9"/>
<stop offset="1" stop-color="#F53689"/>
</linearGradient>
<linearGradient id="paint7_linear_105_5662" x1="113.638" y1="88.2219" x2="114.684" y2="88.2219" gradientUnits="userSpaceOnUse">
<stop stop-color="#FF66A9"/>
<stop offset="1" stop-color="#F53689"/>
</linearGradient>
<linearGradient id="paint8_linear_105_5662" x1="102.133" y1="105.003" x2="103.179" y2="105.003" gradientUnits="userSpaceOnUse">
<stop stop-color="#FF66A9"/>
<stop offset="1" stop-color="#F53689"/>
</linearGradient>
<linearGradient id="paint9_linear_105_5662" x1="113.638" y1="108.359" x2="114.684" y2="108.359" gradientUnits="userSpaceOnUse">
<stop stop-color="#FF66A9"/>
<stop offset="1" stop-color="#F53689"/>
</linearGradient>
<linearGradient id="paint10_linear_105_5662" x1="117.143" y1="59.4319" x2="118.236" y2="59.4319" gradientUnits="userSpaceOnUse">
<stop stop-color="#FF66A9"/>
<stop offset="1" stop-color="#F53689"/>
</linearGradient>
<linearGradient id="paint11_linear_105_5662" x1="117.143" y1="75.506" x2="118.236" y2="75.506" gradientUnits="userSpaceOnUse">
<stop stop-color="#FF66A9"/>
<stop offset="1" stop-color="#F53689"/>
</linearGradient>
<linearGradient id="paint12_linear_105_5662" x1="112.334" y1="91.7282" x2="113.427" y2="91.7282" gradientUnits="userSpaceOnUse">
<stop stop-color="#FF66A9"/>
<stop offset="1" stop-color="#F53689"/>
</linearGradient>
<linearGradient id="paint13_linear_105_5662" x1="126.763" y1="86.9047" x2="127.856" y2="86.9047" gradientUnits="userSpaceOnUse">
<stop stop-color="#FF66A9"/>
<stop offset="1" stop-color="#F53689"/>
</linearGradient>
<linearGradient id="paint14_linear_105_5662" x1="114.738" y1="104.443" x2="115.831" y2="104.443" gradientUnits="userSpaceOnUse">
<stop stop-color="#FF66A9"/>
<stop offset="1" stop-color="#F53689"/>
</linearGradient>
<linearGradient id="paint15_linear_105_5662" x1="126.763" y1="107.951" x2="127.856" y2="107.951" gradientUnits="userSpaceOnUse">
<stop stop-color="#FF66A9"/>
<stop offset="1" stop-color="#F53689"/>
</linearGradient>
<linearGradient id="paint16_linear_105_5662" x1="36.2973" y1="116.652" x2="36.2973" y2="104.583" gradientUnits="userSpaceOnUse">
<stop stop-color="white"/>
<stop offset="0.9913" stop-color="#D8E0EB"/>
</linearGradient>
<linearGradient id="paint17_linear_105_5662" x1="3.94875" y1="78.8465" x2="5.49745" y2="78.8465" gradientUnits="userSpaceOnUse">
<stop stop-color="#FF66A9"/>
<stop offset="1" stop-color="#F53689"/>
</linearGradient>
<linearGradient id="paint18_linear_105_5662" x1="7.10572" y1="66.6622" x2="8.65442" y2="66.6622" gradientUnits="userSpaceOnUse">
<stop stop-color="#FF66A9"/>
<stop offset="1" stop-color="#F53689"/>
</linearGradient>
<linearGradient id="paint19_linear_105_5662" x1="10.2624" y1="78.8465" x2="11.8109" y2="78.8465" gradientUnits="userSpaceOnUse">
<stop stop-color="#83A6FF"/>
<stop offset="1" stop-color="#5A78FF"/>
</linearGradient>
<linearGradient id="paint20_linear_105_5662" x1="16.5762" y1="75.8005" x2="18.1248" y2="75.8005" gradientUnits="userSpaceOnUse">
<stop stop-color="#FF66A9"/>
<stop offset="1" stop-color="#F53689"/>
</linearGradient>
<linearGradient id="paint21_linear_105_5662" x1="26.0467" y1="91.0308" x2="27.5954" y2="91.0308" gradientUnits="userSpaceOnUse">
<stop stop-color="#83A6FF"/>
<stop offset="1" stop-color="#5A78FF"/>
</linearGradient>
<linearGradient id="paint22_linear_105_5662" x1="29.2037" y1="84.9387" x2="30.7522" y2="84.9387" gradientUnits="userSpaceOnUse">
<stop stop-color="#FF66A9"/>
<stop offset="1" stop-color="#F53689"/>
</linearGradient>
<linearGradient id="paint23_linear_105_5662" x1="54.4828" y1="75.8005" x2="56.0313" y2="75.8005" gradientUnits="userSpaceOnUse">
<stop stop-color="#FF66A9"/>
<stop offset="1" stop-color="#F53689"/>
</linearGradient>
<linearGradient id="paint24_linear_105_5662" x1="63.9534" y1="91.0308" x2="65.5021" y2="91.0308" gradientUnits="userSpaceOnUse">
<stop stop-color="#83A6FF"/>
<stop offset="1" stop-color="#5A78FF"/>
</linearGradient>
<linearGradient id="paint25_linear_105_5662" x1="63.9534" y1="75.8005" x2="65.5021" y2="75.8005" gradientUnits="userSpaceOnUse">
<stop stop-color="#83A6FF"/>
<stop offset="1" stop-color="#5A78FF"/>
</linearGradient>
<linearGradient id="paint26_linear_105_5662" x1="67.1104" y1="84.9387" x2="68.6591" y2="84.9387" gradientUnits="userSpaceOnUse">
<stop stop-color="#FF66A9"/>
<stop offset="1" stop-color="#F53689"/>
</linearGradient>
<linearGradient id="paint27_linear_105_5662" x1="35.5175" y1="75.8005" x2="37.0661" y2="75.8005" gradientUnits="userSpaceOnUse">
<stop stop-color="#83A6FF"/>
<stop offset="1" stop-color="#5A78FF"/>
</linearGradient>
<linearGradient id="paint28_linear_105_5662" x1="38.6738" y1="81.8925" x2="40.2225" y2="81.8925" gradientUnits="userSpaceOnUse">
<stop stop-color="#FF66A9"/>
<stop offset="1" stop-color="#F53689"/>
</linearGradient>
<linearGradient id="paint29_linear_105_5662" x1="38.6738" y1="72.7544" x2="40.2225" y2="72.7544" gradientUnits="userSpaceOnUse">
<stop stop-color="#83A6FF"/>
<stop offset="1" stop-color="#5A78FF"/>
</linearGradient>
<linearGradient id="paint30_linear_105_5662" x1="44.9877" y1="72.7544" x2="46.5364" y2="72.7544" gradientUnits="userSpaceOnUse">
<stop stop-color="#FF66A9"/>
<stop offset="1" stop-color="#F53689"/>
</linearGradient>
<linearGradient id="paint31_linear_105_5662" x1="80.1325" y1="2.87705" x2="80.1325" y2="42.8648" gradientUnits="userSpaceOnUse">
<stop stop-color="#83A6FF"/>
<stop offset="1" stop-color="#5A78FF"/>
</linearGradient>
<linearGradient id="paint32_linear_105_5662" x1="87.4874" y1="18.0732" x2="97.4636" y2="28.9266" gradientUnits="userSpaceOnUse">
<stop stop-color="#83A6FF"/>
<stop offset="1" stop-color="#87A5FF" stop-opacity="0"/>
</linearGradient>
<linearGradient id="paint33_linear_105_5662" x1="66.4552" y1="11.2922" x2="73.1484" y2="16.4374" gradientUnits="userSpaceOnUse">
<stop stop-color="#83A6FF"/>
<stop offset="1" stop-color="#87A5FF" stop-opacity="0"/>
</linearGradient>
<linearGradient id="paint34_linear_105_5662" x1="76.3932" y1="20.2281" x2="100.323" y2="44.0921" gradientUnits="userSpaceOnUse">
<stop stop-color="#4F6AFF"/>
<stop offset="1" stop-color="#657EFF" stop-opacity="0"/>
</linearGradient>
<linearGradient id="paint35_linear_105_5662" x1="90.2628" y1="32.0486" x2="80.0135" y2="21.8274" gradientUnits="userSpaceOnUse">
<stop offset="0.0113208" stop-color="#C2D1FF"/>
<stop offset="1" stop-color="white"/>
</linearGradient>
<linearGradient id="paint36_linear_105_5662" x1="88.3136" y1="34.0036" x2="78.0641" y2="23.7824" gradientUnits="userSpaceOnUse">
<stop offset="0.0113208" stop-color="#C2D1FF"/>
<stop offset="1" stop-color="white"/>
</linearGradient>
</defs>
</svg>
