<svg width="120" height="102" viewBox="0 0 120 102" fill="none" xmlns="http://www.w3.org/2000/svg">
<path d="M9.08093 100.494H112.632" stroke="#EBF0F6" stroke-width="2" stroke-miterlimit="10" stroke-linecap="round" stroke-linejoin="round"/>
<path d="M90.341 3.21566H90.0371C89.9357 3.21566 89.8344 3.11453 89.7331 3.01341C89.7331 2.91229 89.6318 2.81117 89.6318 2.81117C89.5305 2.71005 89.6318 2.60893 89.6318 2.50781L89.8344 2.30556C89.9357 2.20444 89.9357 2.0022 89.8344 1.90108L89.4291 1.49659C89.3278 1.39547 89.1252 1.39547 89.0238 1.49659L88.8212 1.69884C88.7199 1.79996 88.6186 1.79996 88.5172 1.69884C88.4159 1.69884 88.3146 1.59771 88.3146 1.59771C88.2133 1.59771 88.1119 1.49659 88.1119 1.29435V0.990986C88.1119 0.788743 87.9093 0.687622 87.808 0.687622H87.2C86.9974 0.687622 86.8961 0.788743 86.8961 0.990986V1.29435C86.8961 1.39547 86.7948 1.49659 86.6934 1.59771C86.5921 1.59771 86.4908 1.69884 86.4908 1.69884C86.3895 1.79996 86.2882 1.69884 86.1868 1.69884L85.9842 1.49659C85.8829 1.39547 85.6802 1.39547 85.5789 1.49659L85.1736 1.90108C85.0723 2.0022 85.0723 2.20444 85.1736 2.30556L85.3763 2.50781C85.4776 2.60893 85.4776 2.71005 85.3763 2.81117C85.3763 2.91229 85.2749 3.01341 85.2749 3.01341C85.2749 3.11453 85.1736 3.21566 84.971 3.21566H84.667C84.4644 3.21566 84.363 3.4179 84.363 3.51902V4.12575C84.363 4.32799 84.4644 4.42911 84.667 4.42911H84.971C85.0723 4.42911 85.1736 4.53023 85.2749 4.63136C85.2749 4.73248 85.3763 4.8336 85.3763 4.8336C85.4776 4.93472 85.3763 5.03584 85.3763 5.13696L85.1736 5.33921C85.0723 5.44033 85.0723 5.64257 85.1736 5.74369L85.5789 6.14818C85.6802 6.2493 85.8829 6.2493 85.9842 6.14818L86.1868 5.94593C86.2882 5.84481 86.3895 5.84481 86.4908 5.94593C86.5921 5.94593 86.6934 6.04705 86.6934 6.04705C86.7948 6.04705 86.8961 6.14818 86.8961 6.35042V6.65378C86.8961 6.85603 87.0987 6.95715 87.2 6.95715H87.808C88.0106 6.95715 88.1119 6.85603 88.1119 6.65378V6.35042C88.1119 6.2493 88.2133 6.14818 88.3146 6.04705C88.4159 6.04705 88.5172 5.94593 88.5172 5.94593C88.6186 5.84481 88.7199 5.94593 88.8212 5.94593L89.0238 6.14818C89.1252 6.2493 89.3278 6.2493 89.4291 6.14818L89.8344 5.74369C89.9357 5.64257 89.9357 5.44033 89.8344 5.33921L89.6318 5.13696C89.5305 5.03584 89.5305 4.93472 89.6318 4.8336C89.6318 4.73248 89.7331 4.63136 89.7331 4.63136C89.7331 4.53023 89.8344 4.42911 90.0371 4.42911H90.341C90.5437 4.42911 90.645 4.22687 90.645 4.12575V3.51902C90.645 3.4179 90.5437 3.31678 90.341 3.21566ZM87.4027 5.03584C86.7948 5.03584 86.2882 4.53023 86.2882 3.92351C86.2882 3.31678 86.7948 2.81117 87.4027 2.81117C88.0106 2.81117 88.5172 3.31678 88.5172 3.92351C88.5172 4.53023 88.0106 5.03584 87.4027 5.03584Z" fill="url(#paint0_linear_105_2459)"/>
<path d="M117.144 28.3141C117.042 28.3141 117.144 28.3141 117.144 28.3141C117.346 28.5163 117.448 28.6174 117.448 28.9208C116.637 31.2466 116.434 31.3477 117.448 31.7522C117.549 31.7522 117.65 31.8533 117.549 31.9544C117.346 32.6623 117.245 33.0668 116.941 32.9657C113.091 31.6511 117.042 29.0219 115.117 28.3141C115.016 28.3141 115.016 28.2129 115.016 28.2129L115.421 26.9995C115.421 26.8984 115.522 26.8984 115.522 26.8984C116.434 27.2017 116.536 26.4939 116.84 25.5838C117.245 24.3703 118.258 23.8647 119.474 24.2692C119.677 24.3703 119.981 24.3703 119.879 24.5726C119.474 25.786 119.575 25.6849 119.069 25.4827C117.853 25.2804 118.258 28.4152 117.144 28.3141Z" fill="url(#paint1_linear_105_2459)"/>
<path d="M4.37247 54.8077C4.37247 54.7066 4.37247 54.7066 4.37247 54.8077C4.16982 54.9089 3.96717 54.9089 3.76453 54.8077C1.83942 53.2909 1.83942 52.9876 1.13017 53.7965C1.02885 53.8977 0.927525 53.8977 0.826203 53.7965C0.319594 53.392 -0.0856917 53.0887 0.01563 52.8864C2.54867 49.7517 3.66321 54.3021 4.9804 52.7853C4.9804 52.7853 5.08171 52.6842 5.18304 52.7853L6.09493 53.5943C6.09493 53.5943 6.19626 53.6954 6.09493 53.7965C5.487 54.6055 6.09493 54.9089 6.80418 55.5156C7.8174 56.3246 7.91872 57.4369 7.10815 58.4481C7.00683 58.6504 6.80419 58.8526 6.60154 58.7515C5.58832 57.9425 5.58833 58.0436 5.99361 57.6391C7.00683 56.5268 3.86586 55.819 4.37247 54.8077Z" fill="url(#paint2_linear_105_2459)"/>
<path d="M44.4959 4.95487C44.4959 4.95487 44.4959 5.05599 44.4959 4.95487C44.5972 5.15711 44.5972 5.25823 44.4959 5.46047C43.28 6.97729 43.0774 6.97729 43.6853 7.58402C43.7866 7.68514 43.7866 7.68514 43.6853 7.78627C43.28 8.19075 43.1787 8.59524 42.976 8.39299C40.443 6.37057 44.0906 5.46047 42.8747 4.44926V4.34814L43.4826 3.53917H43.584C44.1919 4.04478 44.4959 3.53917 45.0025 2.93244C45.7117 2.12347 46.5223 2.02235 47.3329 2.7302C47.4342 2.83132 47.6368 2.93244 47.5355 3.13468C46.9276 3.94365 47.0289 3.94365 46.6236 3.64029C45.9144 2.83132 45.3064 5.35935 44.4959 4.95487Z" fill="#CED7E2"/>
<path d="M116.333 44.7967C116.434 44.6956 116.637 44.5945 116.84 44.6956C118.562 45.6057 118.663 45.8079 119.069 45.1001C119.069 44.999 119.17 44.999 119.271 44.999C119.778 45.3023 120.082 45.4035 119.981 45.6057C118.461 48.4371 116.84 44.999 116.029 46.4147C116.029 46.4147 115.928 46.5158 115.928 46.4147L115.016 45.9091C115.016 45.9091 114.915 45.8079 115.016 45.8079C115.421 45.1001 114.915 44.999 114.205 44.5945C113.293 44.0889 112.989 43.2799 113.496 42.3698C113.597 42.1676 113.699 41.9653 113.8 42.0664C114.712 42.5721 114.712 42.4709 114.408 42.8754C114.003 43.7855 116.536 43.8866 116.333 44.7967Z" fill="#E3EAF2"/>
<path d="M5.38575 41.1563C5.48707 41.0552 5.68971 40.9541 5.89236 41.0552C7.61483 41.9653 7.71615 42.1676 8.12143 41.4597C8.12143 41.3586 8.22275 41.3586 8.32407 41.3586C8.83068 41.662 9.13465 41.7631 9.03333 41.9653C7.5135 44.7967 5.89235 41.3586 5.08178 42.7743C5.08178 42.7743 4.98046 42.8754 4.98046 42.7743L4.06856 42.2687C4.06856 42.2687 3.96724 42.1676 4.06856 42.1676C4.47385 41.4597 3.96724 41.3586 3.25799 40.9541C2.3461 40.4485 2.04213 39.6395 2.54874 38.7294C2.65006 38.5272 2.75138 38.3249 2.8527 38.4261C3.7646 38.9317 3.7646 38.8306 3.46064 39.235C3.05535 40.1451 5.58839 40.2463 5.38575 41.1563Z" fill="#E3EAF2"/>
<path d="M111.875 9.20201C112.077 9.20201 112.179 9.30313 112.28 9.40425C112.888 11.2244 112.787 11.4267 113.597 11.2244C113.699 11.2244 113.8 11.2244 113.8 11.3256C114.003 11.8312 114.205 12.2356 113.901 12.2356C110.862 13.2469 112.077 9.70761 110.456 10.2132C110.456 10.2132 110.355 10.2132 110.355 10.1121L110.051 9.20201C110.051 9.20201 110.051 9.10088 110.152 9.10088C110.862 8.89864 110.659 8.39303 110.355 7.58406C110.051 6.57285 110.456 5.76388 111.47 5.46051C111.672 5.35939 111.875 5.25827 111.875 5.46051C112.179 6.47173 112.28 6.37061 111.773 6.47173C110.862 6.87621 112.685 8.6964 111.875 9.20201Z" fill="#CED7E2"/>
<path d="M63.3418 1.4157C63.2405 1.51682 63.1391 1.61794 62.9365 1.61794C61.3153 1.11233 61.214 1.01121 61.0114 1.71906C61.0114 1.82018 60.9101 1.82018 60.8087 1.82018C60.3021 1.71906 59.9982 1.71906 60.0995 1.51682C60.9101 -1.21346 62.8352 1.4157 63.2405 0.101121L63.3418 0L64.1524 0.202243L64.2537 0.303363C64.051 1.01121 64.5576 1.01121 65.1656 1.21346C66.0775 1.4157 66.3814 2.12355 66.1788 3.03364C66.1788 3.23588 66.0775 3.337 65.9761 3.337C65.1656 3.13476 65.1656 3.23588 65.2669 2.8314C65.4695 1.82018 63.3418 2.22467 63.3418 1.4157Z" fill="#E3EAF2"/>
<path d="M8.72936 88.9867C8.62804 88.9867 8.72936 88.9867 8.72936 88.9867C8.62804 89.0879 8.52671 89.189 8.32407 89.189C6.70292 88.6834 6.60161 88.5823 6.39896 89.2901C6.39896 89.3912 6.29764 89.3912 6.19631 89.3912C5.68971 89.2901 5.38574 89.2901 5.48706 89.0879C6.29764 86.3576 8.22275 88.9868 8.62804 87.6722L8.72936 87.571L9.53993 87.7733L9.64125 87.8744C9.43861 88.5823 9.94522 88.5823 10.5532 88.7845C11.465 88.9867 11.769 89.6946 11.5664 90.6047C11.5664 90.8069 11.465 90.9081 11.3637 90.9081C10.5531 90.7058 10.5532 90.8069 10.6545 90.4024C10.8571 89.3912 8.62804 89.7957 8.72936 88.9867Z" fill="#E3EAF2"/>
<path d="M83.3497 99.6855C75.6492 99.8877 66.429 99.6855 59.9444 99.5843C53.4598 99.7866 44.2395 99.8877 36.5391 99.6855C44.1382 95.3372 46.7726 87.3486 47.1778 82.0903H72.6096C73.2175 87.3486 75.8519 95.3372 83.3497 99.6855Z" fill="url(#paint3_linear_105_2459)"/>
<path d="M37.3497 101H82.5391C83.1471 101 83.755 100.494 83.755 99.7865C83.755 99.1798 83.2484 98.5731 82.5391 98.5731H37.3497C36.7417 98.5731 36.1338 99.0787 36.1338 99.7865C36.2351 100.494 36.7417 101 37.3497 101Z" fill="#EBF0F6"/>
<path d="M108.072 15.148V81.2814C108.072 82.8993 106.755 84.1128 105.235 84.1128H15.1602C13.6404 84.1128 12.3232 82.7982 12.3232 81.2814V15.148C12.3232 13.6312 13.6404 12.3166 15.1602 12.3166H105.235C106.856 12.3166 108.072 13.53 108.072 15.148Z" fill="#F5F8FF"/>
<path d="M108.072 15.148V72.0793H12.3232V15.148C12.3232 13.6312 13.6404 12.3166 15.1602 12.3166H105.235C106.856 12.3166 108.072 13.53 108.072 15.148Z" fill="#172D45"/>
<path d="M104.425 15.8558H15.5654V68.8434H104.425V15.8558Z" fill="white"/>
<path d="M60.0457 80.6746C61.3328 80.6746 62.3761 79.6333 62.3761 78.3488C62.3761 77.0643 61.3328 76.023 60.0457 76.023C58.7587 76.023 57.7153 77.0643 57.7153 78.3488C57.7153 79.6333 58.7587 80.6746 60.0457 80.6746Z" fill="#DBDFE6"/>
<path d="M19.517 60.7537H17.4906V62.7761H19.517V60.7537Z" fill="#EAEEF9"/>
<path d="M19.517 56.7087H17.4906V58.7312H19.517V56.7087Z" fill="#EAEEF9"/>
<path d="M19.517 52.7651H17.4906V54.7876H19.517V52.7651Z" fill="#EAEEF9"/>
<path d="M19.517 48.8213H17.4906V50.8437H19.517V48.8213Z" fill="url(#paint4_linear_105_2459)"/>
<path d="M19.517 44.7765H17.4906V46.7989H19.517V44.7765Z" fill="#EAEEF9"/>
<path d="M19.517 40.8328H17.4906V42.8552H19.517V40.8328Z" fill="#F3F5FA"/>
<path d="M23.6712 64.6974H21.6448V66.7198H23.6712V64.6974Z" fill="#EAEEF9"/>
<path d="M23.6712 60.7537H21.6448V62.7761H23.6712V60.7537Z" fill="#EAEEF9"/>
<path d="M23.6712 52.7651H21.6448V54.7876H23.6712V52.7651Z" fill="#EAEEF9"/>
<path d="M23.6712 48.8213H21.6448V50.8437H23.6712V48.8213Z" fill="#EAEEF9"/>
<path d="M23.6712 44.7765H21.6448V46.7989H23.6712V44.7765Z" fill="#EAEEF9"/>
<path d="M23.6712 40.8328H21.6448V42.8552H23.6712V40.8328Z" fill="#EAEEF9"/>
<path d="M23.6712 36.889H21.6448V38.9115H23.6712V36.889Z" fill="#EAEEF9"/>
<path d="M23.6712 32.8442H21.6448V34.8667H23.6712V32.8442Z" fill="url(#paint5_linear_105_2459)"/>
<path d="M27.8255 64.6974H25.7991V66.7198H27.8255V64.6974Z" fill="#EAEEF9"/>
<path d="M27.8255 60.7537H25.7991V62.7761H27.8255V60.7537Z" fill="#EAEEF9"/>
<path d="M27.8255 56.7087H25.7991V58.7312H27.8255V56.7087Z" fill="#EAEEF9"/>
<path d="M27.8255 52.7651H25.7991V54.7876H27.8255V52.7651Z" fill="#EAEEF9"/>
<path d="M27.8255 48.8213H25.7991V50.8437H27.8255V48.8213Z" fill="url(#paint6_linear_105_2459)"/>
<path d="M27.8255 44.7765H25.7991V46.7989H27.8255V44.7765Z" fill="#F3F5FA"/>
<path d="M27.8255 40.8328H25.7991V42.8552H27.8255V40.8328Z" fill="#EAEEF9"/>
<path d="M27.8255 36.889H25.7991V38.9115H27.8255V36.889Z" fill="#F3F5FA"/>
<path d="M27.8255 32.8442H25.7991V34.8667H27.8255V32.8442Z" fill="#EAEEF9"/>
<path d="M27.8255 28.9004H25.7991V30.9228H27.8255V28.9004Z" fill="#F3F5FA"/>
<path d="M31.9796 64.6974H29.9531V66.7198H31.9796V64.6974Z" fill="#EAEEF9"/>
<path d="M31.9796 60.7537H29.9531V62.7761H31.9796V60.7537Z" fill="#EAEEF9"/>
<path d="M31.9796 56.7087H29.9531V58.7312H31.9796V56.7087Z" fill="#EAEEF9"/>
<path d="M31.9796 52.7651H29.9531V54.7876H31.9796V52.7651Z" fill="#EAEEF9"/>
<path d="M31.9796 48.8213H29.9531V50.8437H31.9796V48.8213Z" fill="#EAEEF9"/>
<path d="M31.9796 44.7765H29.9531V46.7989H31.9796V44.7765Z" fill="#F3F5FA"/>
<path d="M31.9796 40.8328H29.9531V42.8552H31.9796V40.8328Z" fill="#EAEEF9"/>
<path d="M31.9796 36.889H29.9531V38.9115H31.9796V36.889Z" fill="#EAEEF9"/>
<path d="M36.1339 64.6974H34.1074V66.7198H36.1339V64.6974Z" fill="#EAEEF9"/>
<path d="M36.1339 60.7537H34.1074V62.7761H36.1339V60.7537Z" fill="#EAEEF9"/>
<path d="M36.1339 56.7087H34.1074V58.7312H36.1339V56.7087Z" fill="#EAEEF9"/>
<path d="M36.1339 48.8213H34.1074V50.8437H36.1339V48.8213Z" fill="#EAEEF9"/>
<path d="M36.1339 44.7765H34.1074V46.7989H36.1339V44.7765Z" fill="url(#paint7_linear_105_2459)"/>
<path d="M36.1339 40.8328H34.1074V42.8552H36.1339V40.8328Z" fill="#F3F5FA"/>
<path d="M40.288 64.6974H38.2616V66.7198H40.288V64.6974Z" fill="#EAEEF9"/>
<path d="M40.288 60.7537H38.2616V62.7761H40.288V60.7537Z" fill="#EAEEF9"/>
<path d="M40.288 56.7087H38.2616V58.7312H40.288V56.7087Z" fill="#EAEEF9"/>
<path d="M40.288 52.7651H38.2616V54.7876H40.288V52.7651Z" fill="#EAEEF9"/>
<path d="M40.288 48.8213H38.2616V50.8437H40.288V48.8213Z" fill="#EAEEF9"/>
<path d="M40.288 44.7765H38.2616V46.7989H40.288V44.7765Z" fill="#EAEEF9"/>
<path d="M40.288 40.8328H38.2616V42.8552H40.288V40.8328Z" fill="#F3F5FA"/>
<path d="M40.288 36.889H38.2616V38.9115H40.288V36.889Z" fill="#EAEEF9"/>
<path d="M40.288 32.8442H38.2616V34.8667H40.288V32.8442Z" fill="#EAEEF9"/>
<path d="M44.4422 64.6974H42.4158V66.7198H44.4422V64.6974Z" fill="#EAEEF9"/>
<path d="M44.4422 60.7537H42.4158V62.7761H44.4422V60.7537Z" fill="#EAEEF9"/>
<path d="M44.4422 56.7087H42.4158V58.7312H44.4422V56.7087Z" fill="#EAEEF9"/>
<path d="M44.4422 48.8213H42.4158V50.8437H44.4422V48.8213Z" fill="#EAEEF9"/>
<path d="M44.4422 44.7765H42.4158V46.7989H44.4422V44.7765Z" fill="#F3F5FA"/>
<path d="M48.5964 64.6974H46.5699V66.7198H48.5964V64.6974Z" fill="url(#paint8_linear_105_2459)"/>
<path d="M48.5964 60.7537H46.5699V62.7761H48.5964V60.7537Z" fill="#EAEEF9"/>
<path d="M48.5964 56.7087H46.5699V58.7312H48.5964V56.7087Z" fill="#EAEEF9"/>
<path d="M48.5964 52.7651H46.5699V54.7876H48.5964V52.7651Z" fill="#F3F5FA"/>
<path d="M48.5964 48.8213H46.5699V50.8437H48.5964V48.8213Z" fill="#EAEEF9"/>
<path d="M48.5964 40.8328H46.5699V42.8552H48.5964V40.8328Z" fill="#EAEEF9"/>
<path d="M48.5964 36.889H46.5699V38.9115H48.5964V36.889Z" fill="#F3F5FA"/>
<path d="M52.7506 64.6974H50.7241V66.7198H52.7506V64.6974Z" fill="#EAEEF9"/>
<path d="M52.7506 60.7537H50.7241V62.7761H52.7506V60.7537Z" fill="#EAEEF9"/>
<path d="M52.7506 56.7087H50.7241V58.7312H52.7506V56.7087Z" fill="url(#paint9_linear_105_2459)"/>
<path d="M52.7506 52.7651H50.7241V54.7876H52.7506V52.7651Z" fill="#EAEEF9"/>
<path d="M52.7506 48.8213H50.7241V50.8437H52.7506V48.8213Z" fill="#EAEEF9"/>
<path d="M52.7506 44.7765H50.7241V46.7989H52.7506V44.7765Z" fill="#EAEEF9"/>
<path d="M52.7506 40.8328H50.7241V42.8552H52.7506V40.8328Z" fill="#F3F5FA"/>
<path d="M52.7506 32.8442H50.7241V34.8667H52.7506V32.8442Z" fill="#EAEEF9"/>
<path d="M52.7506 28.9004H50.7241V30.9228H52.7506V28.9004Z" fill="#F3F5FA"/>
<path d="M81.7286 60.7537H79.7021V62.7761H81.7286V60.7537Z" fill="#EAEEF9"/>
<path d="M81.7286 52.7651H79.7021V54.7876H81.7286V52.7651Z" fill="#EAEEF9"/>
<path d="M81.7286 48.8213H79.7021V50.8437H81.7286V48.8213Z" fill="#EAEEF9"/>
<path d="M81.7286 44.7765H79.7021V46.7989H81.7286V44.7765Z" fill="#F3F5FA"/>
<path d="M81.7286 40.8328H79.7021V42.8552H81.7286V40.8328Z" fill="#EAEEF9"/>
<path d="M81.7286 36.889H79.7021V38.9115H81.7286V36.889Z" fill="#EAEEF9"/>
<path d="M85.8828 64.6974H83.8563V66.7198H85.8828V64.6974Z" fill="#EAEEF9"/>
<path d="M85.8828 60.7537H83.8563V62.7761H85.8828V60.7537Z" fill="#EAEEF9"/>
<path d="M85.8828 56.7087H83.8563V58.7312H85.8828V56.7087Z" fill="#EAEEF9"/>
<path d="M85.8828 52.7651H83.8563V54.7876H85.8828V52.7651Z" fill="#EAEEF9"/>
<path d="M85.8828 48.8213H83.8563V50.8437H85.8828V48.8213Z" fill="#EAEEF9"/>
<path d="M85.8828 44.7765H83.8563V46.7989H85.8828V44.7765Z" fill="url(#paint10_linear_105_2459)"/>
<path d="M85.8828 40.8328H83.8563V42.8552H85.8828V40.8328Z" fill="#F3F5FA"/>
<path d="M90.0369 64.6974H88.0105V66.7198H90.0369V64.6974Z" fill="#EAEEF9"/>
<path d="M90.0369 60.7537H88.0105V62.7761H90.0369V60.7537Z" fill="#EAEEF9"/>
<path d="M90.0369 56.7087H88.0105V58.7312H90.0369V56.7087Z" fill="#EAEEF9"/>
<path d="M90.0369 52.7651H88.0105V54.7876H90.0369V52.7651Z" fill="#EAEEF9"/>
<path d="M90.0369 48.8213H88.0105V50.8437H90.0369V48.8213Z" fill="#EAEEF9"/>
<path d="M90.0369 44.7765H88.0105V46.7989H90.0369V44.7765Z" fill="#EAEEF9"/>
<path d="M90.0369 40.8328H88.0105V42.8552H90.0369V40.8328Z" fill="#F3F5FA"/>
<path d="M90.0369 36.889H88.0105V38.9115H90.0369V36.889Z" fill="#EAEEF9"/>
<path d="M90.0369 32.8442H88.0105V34.8667H90.0369V32.8442Z" fill="#EAEEF9"/>
<path d="M94.1912 64.6974H92.1648V66.7198H94.1912V64.6974Z" fill="#EAEEF9"/>
<path d="M94.1912 60.7537H92.1648V62.7761H94.1912V60.7537Z" fill="#EAEEF9"/>
<path d="M94.1912 56.7087H92.1648V58.7312H94.1912V56.7087Z" fill="#EAEEF9"/>
<path d="M94.1912 52.7651H92.1648V54.7876H94.1912V52.7651Z" fill="#EAEEF9"/>
<path d="M94.1912 48.8213H92.1648V50.8437H94.1912V48.8213Z" fill="#EAEEF9"/>
<path d="M98.3453 64.6974H96.3188V66.7198H98.3453V64.6974Z" fill="url(#paint11_linear_105_2459)"/>
<path d="M98.3453 60.7537H96.3188V62.7761H98.3453V60.7537Z" fill="#EAEEF9"/>
<path d="M98.3453 56.7087H96.3188V58.7312H98.3453V56.7087Z" fill="#EAEEF9"/>
<path d="M98.3453 52.7651H96.3188V54.7876H98.3453V52.7651Z" fill="#F3F5FA"/>
<path d="M98.3453 48.8213H96.3188V50.8437H98.3453V48.8213Z" fill="#EAEEF9"/>
<path d="M98.3453 44.7765H96.3188V46.7989H98.3453V44.7765Z" fill="url(#paint12_linear_105_2459)"/>
<path d="M98.3453 40.8328H96.3188V42.8552H98.3453V40.8328Z" fill="#EAEEF9"/>
<path d="M98.3453 36.889H96.3188V38.9115H98.3453V36.889Z" fill="#F3F5FA"/>
<path d="M102.5 64.6974H100.473V66.7198H102.5V64.6974Z" fill="#EAEEF9"/>
<path d="M102.5 60.7537H100.473V62.7761H102.5V60.7537Z" fill="#EAEEF9"/>
<path d="M102.5 56.7087H100.473V58.7312H102.5V56.7087Z" fill="url(#paint13_linear_105_2459)"/>
<path d="M102.5 52.7651H100.473V54.7876H102.5V52.7651Z" fill="#EAEEF9"/>
<path d="M102.5 48.8213H100.473V50.8437H102.5V48.8213Z" fill="#EAEEF9"/>
<path d="M102.5 44.7765H100.473V46.7989H102.5V44.7765Z" fill="#EAEEF9"/>
<path d="M102.5 40.8328H100.473V42.8552H102.5V40.8328Z" fill="#F3F5FA"/>
<path d="M102.5 32.8442H100.473V34.8667H102.5V32.8442Z" fill="#EAEEF9"/>
<path d="M102.5 28.9004H100.473V30.9228H102.5V28.9004Z" fill="#F3F5FA"/>
<path d="M56.9049 64.6974H54.8784V66.7198H56.9049V64.6974Z" fill="#EAEEF9"/>
<path d="M56.9049 60.7537H54.8784V62.7761H56.9049V60.7537Z" fill="#EAEEF9"/>
<path d="M56.9049 56.7087H54.8784V58.7312H56.9049V56.7087Z" fill="#EAEEF9"/>
<path d="M56.9049 48.8213H54.8784V50.8437H56.9049V48.8213Z" fill="#F3F5FA"/>
<path d="M56.9049 40.8328H54.8784V42.8552H56.9049V40.8328Z" fill="#EAEEF9"/>
<path d="M56.9049 36.889H54.8784V38.9115H56.9049V36.889Z" fill="#F3F5FA"/>
<path d="M56.9049 32.8442H54.8784V34.8667H56.9049V32.8442Z" fill="#EAEEF9"/>
<path d="M56.9049 28.9004H54.8784V30.9228H56.9049V28.9004Z" fill="#F3F5FA"/>
<path d="M60.9576 60.7537H58.9312V62.7761H60.9576V60.7537Z" fill="#EAEEF9"/>
<path d="M60.9576 56.7087H58.9312V58.7312H60.9576V56.7087Z" fill="#F3F5FA"/>
<path d="M60.9576 52.7651H58.9312V54.7876H60.9576V52.7651Z" fill="#EAEEF9"/>
<path d="M60.9576 48.8213H58.9312V50.8437H60.9576V48.8213Z" fill="#EAEEF9"/>
<path d="M60.9576 44.7765H58.9312V46.7989H60.9576V44.7765Z" fill="url(#paint14_linear_105_2459)"/>
<path d="M60.9576 40.8328H58.9312V42.8552H60.9576V40.8328Z" fill="#EAEEF9"/>
<path d="M60.9576 36.889H58.9312V38.9115H60.9576V36.889Z" fill="#EAEEF9"/>
<path d="M65.1119 64.6974H63.0854V66.7198H65.1119V64.6974Z" fill="#EAEEF9"/>
<path d="M65.1119 56.7087H63.0854V58.7312H65.1119V56.7087Z" fill="#EAEEF9"/>
<path d="M65.1119 52.7651H63.0854V54.7876H65.1119V52.7651Z" fill="url(#paint15_linear_105_2459)"/>
<path d="M65.1119 48.8213H63.0854V50.8437H65.1119V48.8213Z" fill="#EAEEF9"/>
<path d="M65.1119 44.7765H63.0854V46.7989H65.1119V44.7765Z" fill="#F3F5FA"/>
<path d="M65.1119 40.8328H63.0854V42.8552H65.1119V40.8328Z" fill="url(#paint16_linear_105_2459)"/>
<path d="M69.2659 64.6974H67.2395V66.7198H69.2659V64.6974Z" fill="#EAEEF9"/>
<path d="M69.2659 52.7651H67.2395V54.7876H69.2659V52.7651Z" fill="#F3F5FA"/>
<path d="M69.2659 48.8213H67.2395V50.8437H69.2659V48.8213Z" fill="#EAEEF9"/>
<path d="M69.2659 44.7765H67.2395V46.7989H69.2659V44.7765Z" fill="#EAEEF9"/>
<path d="M73.4202 64.6974H71.3938V66.7198H73.4202V64.6974Z" fill="#EAEEF9"/>
<path d="M73.4202 60.7537H71.3938V62.7761H73.4202V60.7537Z" fill="#EAEEF9"/>
<path d="M73.4202 56.7087H71.3938V58.7312H73.4202V56.7087Z" fill="#EAEEF9"/>
<path d="M73.4202 52.7651H71.3938V54.7876H73.4202V52.7651Z" fill="#EAEEF9"/>
<path d="M73.4202 48.8213H71.3938V50.8437H73.4202V48.8213Z" fill="#F3F5FA"/>
<path d="M73.4202 44.7765H71.3938V46.7989H73.4202V44.7765Z" fill="#EAEEF9"/>
<path d="M73.4202 40.8328H71.3938V42.8552H73.4202V40.8328Z" fill="url(#paint17_linear_105_2459)"/>
<path d="M73.4202 36.889H71.3938V38.9115H73.4202V36.889Z" fill="#EAEEF9"/>
<path d="M77.5744 64.6974H75.548V66.7198H77.5744V64.6974Z" fill="#EAEEF9"/>
<path d="M77.5744 56.7087H75.548V58.7312H77.5744V56.7087Z" fill="#EAEEF9"/>
<path d="M77.5744 52.7651H75.548V54.7876H77.5744V52.7651Z" fill="#F3F5FA"/>
<path d="M116.178 58.8324V71.8771C116.178 72.0793 116.178 72.2816 116.178 72.4838C115.975 74.0006 115.165 75.3152 113.848 76.0231L102.601 82.4948C101.486 83.1016 100.27 83.3038 99.0546 83.0004C98.6493 82.8993 98.244 82.6971 97.8387 82.4948L86.592 76.0231C85.7814 75.5174 85.0722 74.8096 84.6669 73.8995C84.3629 73.2928 84.1603 72.5849 84.1603 71.8771V58.8324C84.1603 58.1246 84.2616 57.5178 84.5656 56.9111C84.9709 56.001 85.6801 55.1921 86.4907 54.6864L97.7374 48.2147C98.8519 47.608 100.068 47.4057 101.284 47.7091C101.689 47.8102 102.094 48.0124 102.5 48.2147L113.746 54.6864C114.759 55.2932 115.469 56.2033 115.874 57.2145C116.178 57.7201 116.178 58.3268 116.178 58.8324Z" fill="#EAEEF9"/>
<path d="M115.975 57.2145L110.605 67.4277L90.2396 64.3941L84.4643 73.8995C84.1603 73.2928 83.9576 72.5849 83.9576 71.8771V58.8324C83.9576 58.1246 84.059 57.5178 84.3629 56.9111C84.7682 56.001 85.4775 55.1921 86.288 54.6864L97.5347 48.2147C98.6493 47.608 99.8651 47.4057 101.081 47.7091C101.486 47.8102 101.892 48.0124 102.297 48.2147L113.544 54.6864C114.861 55.2932 115.57 56.2033 115.975 57.2145Z" fill="#CED7E2"/>
<path d="M116.178 72.4838C115.975 74.0006 115.165 75.3152 113.848 76.0231L102.601 82.4948C101.486 83.1016 100.27 83.3038 99.0546 83.0004L84.4642 56.9111C84.8695 56.001 85.5788 55.1921 86.3893 54.6864L97.6361 48.2147C98.7506 47.608 99.9665 47.4057 101.182 47.7091L116.178 72.4838Z" fill="#E3EAF2"/>
<path d="M106.046 62.9784V71.8771L102.094 69.6524V65.2031L100.068 63.9896L98.0414 65.2031V69.6524L94.0898 71.8771V62.9784C94.0898 62.675 94.2925 62.3717 94.4951 62.2705L99.6625 59.1358C99.8652 59.0347 100.169 59.0347 100.372 59.1358L105.539 62.2705C105.944 62.3717 106.046 62.675 106.046 62.9784Z" fill="#1C3754"/>
<path d="M39.2748 21.0131C40.896 23.5411 40.896 26.6758 39.2748 29.2039C36.0325 34.3611 31.6757 38.6082 26.6096 41.8441C24.0766 43.462 20.9356 43.462 18.4026 41.8441C13.2352 38.6082 8.87832 34.3611 5.63603 29.2039C4.01488 26.6758 4.01488 23.5411 5.63603 21.0131C8.87832 15.8559 13.2352 11.6088 18.3012 8.37288C20.8343 6.75494 23.9753 6.75494 26.5083 8.37288C31.6757 11.6088 36.0325 15.8559 39.2748 21.0131Z" fill="#E3EAF2"/>
<path d="M28.9401 22.1253C28.6361 22.0242 28.3321 21.9231 28.0282 21.8219C28.2308 20.5074 28.6361 18.7883 27.9268 17.4737C27.6229 16.9681 27.2176 16.5636 26.5083 16.4625C24.9885 16.3614 23.3674 17.676 22.3542 18.5861C21.037 17.3726 19.9224 16.6647 18.7066 16.4625C17.4907 16.2603 16.7815 16.9681 16.5788 18.1816C16.2748 19.4961 16.5788 20.9118 16.7815 21.8219C16.1735 22.0242 12.5259 23.1365 12.7286 25.2601C12.9312 27.1814 16.2748 28.1926 16.7815 28.3948C16.5788 29.7094 16.1735 31.1251 16.7815 32.5408C16.9841 33.1475 17.3894 33.552 18.0986 33.6531C19.6185 33.9565 21.3409 32.5408 22.4555 31.6307C23.4687 32.4397 24.5832 33.552 26.1031 33.6531C28.5348 33.9565 28.6361 30.8217 28.1295 28.2937C29.4467 27.7881 31.0678 27.2825 31.7771 26.069C32.8916 24.35 30.8652 22.9343 28.9401 22.1253ZM25.6978 17.4737C26.407 17.2715 26.9136 17.2715 27.3189 17.8782C27.8255 18.8894 27.6229 20.4062 27.3189 21.5186C27.3189 21.7208 27.3189 21.6197 25.5964 21.3163C24.4819 21.1141 25.0898 21.7208 23.1647 19.1928C23.1647 19.1928 23.1647 19.1928 23.1647 19.0917C23.57 18.6872 24.4819 17.7771 25.6978 17.4737ZM18.5039 26.069C18.9092 26.7769 19.3145 27.3836 19.6185 28.0915C19.0105 27.9903 18.4026 27.8892 17.7947 27.7881C18.0986 27.1814 18.3013 26.5746 18.5039 26.069ZM18.4026 24.0466C18.2 23.541 17.9973 22.9343 17.7947 22.4287C18.4026 22.3275 18.9092 22.2264 19.5171 22.1253C18.9092 23.3388 19.1119 22.8332 18.4026 24.0466C18.5039 24.0466 18.5039 24.0466 18.4026 24.0466ZM19.0105 25.1589C18.9092 24.8556 20.429 22.4287 20.6317 22.1253C20.733 22.0242 20.733 22.0242 20.8343 22.0242C22.4555 21.9231 22.2528 21.9231 24.0766 22.0242C24.3806 22.0242 25.7991 24.6533 25.9004 24.9567C25.9004 25.0578 25.9004 25.1589 25.9004 25.1589C24.6846 27.4847 24.5832 27.4847 24.2793 27.9903C24.0766 28.1926 21.2396 28.0915 20.8343 28.0915C20.733 28.0915 20.733 28.0915 20.6317 27.9903C20.0238 27.0802 19.4158 26.1702 19.0105 25.1589ZM26.407 25.9679C26.6097 26.5746 26.8123 27.0802 27.015 27.687C26.407 27.7881 25.7991 27.8892 25.1912 27.9903C25.6978 27.2825 26.0017 26.6758 26.407 25.9679ZM26.407 24.0466C26.0017 23.3388 25.6978 22.732 25.2925 22.0242C25.9004 22.1253 26.5083 22.2264 27.1163 22.3275C26.8123 23.0354 26.6097 23.541 26.407 24.0466ZM22.4555 19.7995C22.8608 20.3051 23.1647 20.7096 23.57 21.1141C22.8608 21.1141 22.1515 21.1141 21.3409 21.1141C21.6449 20.7096 22.0502 20.204 22.4555 19.7995ZM18.8079 17.3726C20.2264 17.5748 21.6449 18.9905 21.9489 19.1928C19.6185 21.9231 21.2396 21.013 17.6934 21.6197C17.1867 19.7995 16.9841 17.0692 18.8079 17.3726ZM16.8828 27.4847C16.1735 27.2825 15.4643 26.9791 14.8563 26.5746C11.3101 24.35 16.5788 22.732 16.9841 22.6309C17.896 24.9567 17.9973 24.9567 17.896 25.1589C16.9841 27.687 17.0854 27.5859 16.8828 27.4847ZM17.592 32.2374C16.9841 31.024 17.4907 28.7993 17.592 28.4959C19.9224 28.9004 19.0105 28.6982 20.1251 28.9004C20.2264 28.9004 20.2264 28.9004 20.3277 29.0016C20.3277 29.1027 21.8475 30.9229 21.9489 30.9229C21.4423 31.5296 18.4026 33.8554 17.592 32.2374ZM21.3409 29.0016C22.1515 29.0016 22.8608 29.0016 23.6713 29.0016C23.266 29.5072 22.9621 29.9116 22.5568 30.4173C22.0502 29.9116 21.7462 29.406 21.3409 29.0016ZM27.2176 32.2374C26.6097 33.8554 23.7727 31.833 23.0634 31.024C25.3938 28.1926 23.7727 29.3049 27.3189 28.5971C27.5216 29.7094 27.7242 30.9229 27.2176 32.2374ZM28.0282 27.4847C27.8255 27.5859 27.9268 27.687 27.015 25.2601C26.9136 24.9567 26.9136 25.0578 27.8255 22.8332C27.8255 22.732 27.9268 22.732 28.0282 22.732C32.4863 24.0466 32.1824 26.069 28.0282 27.4847Z" fill="#1C3754"/>
<path d="M22.4554 26.7769C23.3673 26.7769 24.1778 26.069 24.1778 25.0578C24.1778 24.1477 23.4686 23.3387 22.4554 23.3387C21.5435 23.3387 20.7329 24.0466 20.7329 25.0578C20.7329 25.9679 21.4422 26.7769 22.4554 26.7769Z" fill="#1C3754"/>
<path d="M74.2308 45.2822C83.1841 45.2822 90.4422 38.0384 90.4422 29.1028C90.4422 20.1671 83.1841 12.9233 74.2308 12.9233C65.2774 12.9233 58.0193 20.1671 58.0193 29.1028C58.0193 38.0384 65.2774 45.2822 74.2308 45.2822Z" fill="#E3EAF2"/>
<path d="M78.7903 25.0579C79.3982 25.0579 79.8035 25.0579 80.3101 25.0579C81.526 25.0579 82.1339 25.968 82.4379 27.1814C82.7418 28.3949 82.8432 29.305 82.3366 30.9229C82.0326 32.0352 81.222 32.8442 79.8035 32.8442C77.9797 32.8442 76.0546 32.8442 74.1295 32.8442C74.1295 33.0465 74.1295 33.3498 74.1295 33.5521C75.4467 33.5521 76.7639 33.5521 78.081 33.5521C78.081 33.5521 78.081 33.5521 78.081 33.6532C78.081 35.5745 78.2837 36.3835 77.3718 36.8891C76.1559 37.5969 74.7374 37.5969 73.4202 37.2935C72.3057 37.0913 71.0898 36.5857 71.0898 35.2711C71.0898 34.9678 71.0898 31.6308 71.0898 31.6308C71.0898 31.1251 71.1912 30.7207 71.5965 30.3162C72.0017 29.8106 72.5083 29.6083 73.1163 29.6083C74.2308 29.6083 75.3454 29.6083 76.4599 29.6083C77.5744 29.6083 78.4863 28.7994 78.7903 27.7881C78.8916 27.4848 78.7903 27.3837 78.7903 25.0579ZM76.5612 34.4621C76.1559 34.4621 75.852 34.7655 75.852 35.17C75.852 35.5745 76.1559 35.8778 76.5612 35.8778C76.9665 35.8778 77.2705 35.5745 77.2705 35.17C77.2705 34.7655 76.9665 34.4621 76.5612 34.4621Z" fill="#7E8CA8"/>
<path d="M70.3806 33.552C68.7594 33.552 68.2528 33.6531 67.6449 33.1475C66.8343 32.5408 66.6317 31.3273 66.5303 30.4172C66.3277 28.7993 66.5303 26.4735 68.3541 25.8668C68.8607 25.6645 68.6581 25.7656 74.94 25.7656C74.94 25.5634 74.94 25.26 74.94 25.0578C73.6229 25.0578 72.3057 25.0578 70.9885 25.0578C70.9885 25.0578 70.9885 23.2376 70.9885 23.0354C70.9885 22.6309 71.1911 22.1253 71.4951 21.8219C72.0017 21.4174 72.711 21.3163 73.3189 21.2152C74.8387 21.0129 78.081 21.0129 78.081 23.2376C78.081 24.4511 78.081 25.6645 78.081 26.9791C78.081 27.9903 77.2704 28.9004 76.0546 28.9004C74.94 28.9004 73.8255 28.9004 72.711 28.9004C71.3938 28.9004 70.2793 30.0127 70.2793 31.3273C70.3806 32.1363 70.3806 32.743 70.3806 33.552ZM71.9004 23.4398C71.9004 23.8443 72.2044 24.1477 72.6096 24.1477C73.0149 24.1477 73.3189 23.8443 73.3189 23.4398C73.3189 23.0354 73.0149 22.732 72.6096 22.732C72.2044 22.732 71.9004 23.0354 71.9004 23.4398Z" fill="#1C3754"/>
<path d="M54.0677 61.5627L51.9399 82.3937L38.7681 89.5733H38.6668L25.3936 82.3937L23.0632 61.5627L38.7681 56.4055L54.0677 61.5627Z" fill="#E3EAF2"/>
<path d="M54.0676 61.5627L51.9399 82.3937L38.7681 89.5733V56.4055L54.0676 61.5627Z" fill="#CED7E2"/>
<path d="M38.7681 61.866L30.4597 79.9667L33.6007 80.0678L35.3232 76.1241H42.1117L43.8342 80.1689L46.8738 80.0678L38.7681 61.866ZM36.3364 73.2927L38.7681 67.731L41.0985 73.2927H36.3364Z" fill="#1C3754"/>
<defs>
<linearGradient id="paint0_linear_105_2459" x1="84.0841" y1="3.87123" x2="90.6512" y2="3.87123" gradientUnits="userSpaceOnUse">
<stop stop-color="#FF66A9"/>
<stop offset="1" stop-color="#F53689"/>
</linearGradient>
<linearGradient id="paint1_linear_105_2459" x1="115.038" y1="28.6184" x2="120.039" y2="28.6184" gradientUnits="userSpaceOnUse">
<stop stop-color="#FF66A9"/>
<stop offset="1" stop-color="#F53689"/>
</linearGradient>
<linearGradient id="paint2_linear_105_2459" x1="4.84459" y1="52.716" x2="3.12594" y2="57.3841" gradientUnits="userSpaceOnUse">
<stop stop-color="#83A6FF"/>
<stop offset="1" stop-color="#5A78FF"/>
</linearGradient>
<linearGradient id="paint3_linear_105_2459" x1="60.0042" y1="99.2192" x2="60.0042" y2="83.4458" gradientUnits="userSpaceOnUse">
<stop stop-color="#F5F8FF"/>
<stop offset="0.9913" stop-color="#D8E0EB"/>
</linearGradient>
<linearGradient id="paint4_linear_105_2459" x1="17.5274" y1="49.8102" x2="19.5609" y2="49.8102" gradientUnits="userSpaceOnUse">
<stop stop-color="#FF66A9"/>
<stop offset="1" stop-color="#F53689"/>
</linearGradient>
<linearGradient id="paint5_linear_105_2459" x1="21.6726" y1="33.8866" x2="23.7062" y2="33.8866" gradientUnits="userSpaceOnUse">
<stop stop-color="#FF66A9"/>
<stop offset="1" stop-color="#F53689"/>
</linearGradient>
<linearGradient id="paint6_linear_105_2459" x1="25.818" y1="49.8102" x2="27.8515" y2="49.8102" gradientUnits="userSpaceOnUse">
<stop stop-color="#83A6FF"/>
<stop offset="1" stop-color="#5A78FF"/>
</linearGradient>
<linearGradient id="paint7_linear_105_2459" x1="34.1084" y1="45.8293" x2="36.142" y2="45.8293" gradientUnits="userSpaceOnUse">
<stop stop-color="#FF66A9"/>
<stop offset="1" stop-color="#F53689"/>
</linearGradient>
<linearGradient id="paint8_linear_105_2459" x1="46.5441" y1="65.7339" x2="48.5776" y2="65.7339" gradientUnits="userSpaceOnUse">
<stop stop-color="#83A6FF"/>
<stop offset="1" stop-color="#5A78FF"/>
</linearGradient>
<linearGradient id="paint9_linear_105_2459" x1="50.6893" y1="57.772" x2="52.7228" y2="57.772" gradientUnits="userSpaceOnUse">
<stop stop-color="#FF66A9"/>
<stop offset="1" stop-color="#F53689"/>
</linearGradient>
<linearGradient id="paint10_linear_105_2459" x1="83.8838" y1="45.8293" x2="85.9173" y2="45.8293" gradientUnits="userSpaceOnUse">
<stop stop-color="#FF66A9"/>
<stop offset="1" stop-color="#F53689"/>
</linearGradient>
<linearGradient id="paint11_linear_105_2459" x1="96.3195" y1="65.7339" x2="98.353" y2="65.7339" gradientUnits="userSpaceOnUse">
<stop stop-color="#83A6FF"/>
<stop offset="1" stop-color="#5A78FF"/>
</linearGradient>
<linearGradient id="paint12_linear_105_2459" x1="96.3195" y1="45.8293" x2="98.353" y2="45.8293" gradientUnits="userSpaceOnUse">
<stop stop-color="#83A6FF"/>
<stop offset="1" stop-color="#5A78FF"/>
</linearGradient>
<linearGradient id="paint13_linear_105_2459" x1="100.465" y1="57.772" x2="102.498" y2="57.772" gradientUnits="userSpaceOnUse">
<stop stop-color="#FF66A9"/>
<stop offset="1" stop-color="#F53689"/>
</linearGradient>
<linearGradient id="paint14_linear_105_2459" x1="58.9798" y1="45.8293" x2="61.0133" y2="45.8293" gradientUnits="userSpaceOnUse">
<stop stop-color="#83A6FF"/>
<stop offset="1" stop-color="#5A78FF"/>
</linearGradient>
<linearGradient id="paint15_linear_105_2459" x1="63.1251" y1="53.7912" x2="65.1586" y2="53.7912" gradientUnits="userSpaceOnUse">
<stop stop-color="#FF66A9"/>
<stop offset="1" stop-color="#F53689"/>
</linearGradient>
<linearGradient id="paint16_linear_105_2459" x1="63.1251" y1="41.8484" x2="65.1586" y2="41.8484" gradientUnits="userSpaceOnUse">
<stop stop-color="#83A6FF"/>
<stop offset="1" stop-color="#5A78FF"/>
</linearGradient>
<linearGradient id="paint17_linear_105_2459" x1="71.4156" y1="41.8484" x2="73.4491" y2="41.8484" gradientUnits="userSpaceOnUse">
<stop stop-color="#FF66A9"/>
<stop offset="1" stop-color="#F53689"/>
</linearGradient>
</defs>
</svg>
